<?xml version="1.0" encoding="UTF-8"?>
<svg width="129px" height="42px" viewBox="0 0 129 42" version="1.1" xmlns="http://www.w3.org/2000/svg" xmlns:xlink="http://www.w3.org/1999/xlink">
    <!-- Generator: Sketch 51.3 (57544) - http://www.bohemiancoding.com/sketch -->
    <title>app store</title>
    <desc>Created with Sketch.</desc>
    <defs></defs>
    <g id="Page-1" stroke="none" stroke-width="1" fill="none" fill-rule="evenodd">
        <g id="app-store" transform="translate(1.000000, 1.000000)" fill-rule="nonzero">
            <rect id="Rectangle-3" stroke-opacity="0.2" stroke="#424242" fill="#000000" x="-0.5" y="-0.5" width="127.228374" height="41" rx="3"></rect>
            <g id="Group-37" transform="translate(11.072664, 5.555556)" fill="#FFFFFF">
                <g id="Group" transform="translate(0.000000, 0.628019)">
                    <path d="M16.8465843,12.9849275 C16.8196342,9.94876812 19.299041,8.47166667 19.4124172,8.40289855 C18.0082254,6.3276087 15.8317746,6.04405797 15.0669501,6.02144928 C13.2389916,5.82644928 11.4658626,7.13021739 10.5346911,7.13021739 C9.58493327,7.13021739 8.15100346,6.04028986 6.6055561,6.07231884 C4.6168265,6.1034058 2.75634207,7.27057971 1.7359565,9.08304348 C-0.369866535,12.7786232 1.20067227,18.2094203 3.21821058,21.1965942 C4.22744439,22.6595652 5.40674246,24.2930435 6.95033119,24.2355797 C8.46046466,24.1724638 9.02455759,23.2596377 10.8469402,23.2596377 C12.6525952,23.2596377 13.1823035,24.2355797 14.7565596,24.1988406 C16.3772813,24.1724638 17.3976668,22.7292754 18.3715868,21.2531159 C19.5378744,19.5763043 20.0062481,17.9249275 20.0248344,17.8401449 C19.9867326,17.8269565 16.8772516,16.6239855 16.8465843,12.9849275 Z" id="Shape"></path>
                    <path d="M13.872783,4.05637681 C14.6850025,3.02673913 15.2407316,1.62594203 15.0864656,0.20442029 C13.9108848,0.257173913 12.4407118,1.02869565 11.5941078,2.03572464 C10.8450816,2.92311594 10.1759763,4.3776087 10.3488285,5.74543478 C11.6693821,5.84528986 13.0252496,5.07 13.872783,4.05637681 Z" id="Shape"></path>
                </g>
                <g id="Group" transform="translate(27.879387, 11.932367)">
                    <path d="M10.8218487,12.7211594 L8.71137914,12.7211594 L7.55531389,9.03876812 L3.5369649,9.03876812 L2.43572912,12.7211594 L0.38101829,12.7211594 L4.36219476,0.184637681 L6.8211567,0.184637681 L10.8218487,12.7211594 Z M7.20682155,7.49384058 L6.16134454,4.22028986 C6.0507563,3.88586957 5.84351953,3.09833333 5.53777558,1.85862319 L5.50060306,1.85862319 C5.37886307,2.39181159 5.18277805,3.17934783 4.91327731,4.22028986 L3.88638655,7.49384058 L7.20682155,7.49384058 Z" id="Shape"></path>
                    <path d="M21.060089,8.09014493 C21.060089,9.62753623 20.650262,10.8427536 19.830608,11.7348551 C19.0964508,12.5289855 18.1847949,12.9255797 17.0965695,12.9255797 C15.9219179,12.9255797 15.0781018,12.4978986 14.5641918,11.6425362 L14.5270193,11.6425362 L14.5270193,16.4044928 L12.5457242,16.4044928 L12.5457242,6.65731884 C12.5457242,5.6907971 12.5206327,4.69884058 12.4723085,3.68144928 L14.2147701,3.68144928 L14.3253584,5.11427536 L14.3625309,5.11427536 C15.0232724,4.03471014 16.026001,3.49586957 17.3716461,3.49586957 C18.4236283,3.49586957 19.301829,3.91695652 20.0043895,4.76007246 C20.7088087,5.60413043 21.060089,6.71384058 21.060089,8.09014493 Z M19.0416214,8.16362319 C19.0416214,7.28376812 18.8464656,6.5584058 18.4542956,5.98753623 C18.0258824,5.39217391 17.4506377,5.09449275 16.7294909,5.09449275 C16.2406723,5.09449275 15.7964607,5.26028986 15.3996441,5.58717391 C15.0018982,5.91688406 14.7416906,6.3473913 14.6199506,6.88057971 C14.5586159,7.12927536 14.5279486,7.33275362 14.5279486,7.49289855 L14.5279486,9.00014493 C14.5279486,9.65768116 14.7268216,10.2125362 15.1245675,10.6656522 C15.5223134,11.1187681 16.0390114,11.3448551 16.6746614,11.3448551 C17.4208997,11.3448551 18.0017202,11.0528261 18.4171231,10.4706522 C18.8334553,9.88753623 19.0416214,9.11884058 19.0416214,8.16362319 Z" id="Shape"></path>
                    <path d="M31.3169155,8.09014493 C31.3169155,9.62753623 30.9070885,10.8427536 30.0865052,11.7348551 C29.3532773,12.5289855 28.4416214,12.9255797 27.3533959,12.9255797 C26.1787444,12.9255797 25.3349283,12.4978986 24.8219476,11.6425362 L24.7847751,11.6425362 L24.7847751,16.4044928 L22.80348,16.4044928 L22.80348,6.65731884 C22.80348,5.6907971 22.7783885,4.69884058 22.7300643,3.68144928 L24.472526,3.68144928 L24.5831142,5.11427536 L24.6202867,5.11427536 C25.2800989,4.03471014 26.2828275,3.49586957 27.6294019,3.49586957 C28.6804548,3.49586957 29.5586555,3.91695652 30.2630746,4.76007246 C30.9647059,5.60413043 31.3169155,6.71384058 31.3169155,8.09014493 Z M29.2984478,8.16362319 C29.2984478,7.28376812 29.1023628,6.5584058 28.7101928,5.98753623 C28.2817795,5.39217391 27.7083935,5.09449275 26.9863174,5.09449275 C26.4965695,5.09449275 26.0532872,5.26028986 25.6555413,5.58717391 C25.2577954,5.91688406 24.9985171,6.3473913 24.8767771,6.88057971 C24.8163717,7.12927536 24.7847751,7.33275362 24.7847751,7.49289855 L24.7847751,9.00014493 C24.7847751,9.65768116 24.983648,10.2125362 25.3795353,10.6656522 C25.7772813,11.1178261 26.2939792,11.3448551 26.9314879,11.3448551 C27.6777261,11.3448551 28.2585467,11.0528261 28.6739496,10.4706522 C29.0902818,9.88753623 29.2984478,9.11884058 29.2984478,8.16362319 Z" id="Shape"></path>
                    <path d="M42.7846367,9.20550725 C42.7846367,10.2718841 42.4194167,11.1394928 41.6861888,11.8092754 C40.8804745,12.5412319 39.7587939,12.9067391 38.3174296,12.9067391 C36.9866535,12.9067391 35.9198023,12.6467391 35.1122294,12.1257971 L35.5713099,10.4518116 C36.4411468,10.985 37.3955512,11.2525362 38.4354523,11.2525362 C39.1816906,11.2525362 39.7625111,11.081087 40.1797726,10.7400725 C40.5951755,10.399058 40.8024123,9.94123188 40.8024123,9.37036232 C40.8024123,8.86166667 40.6314187,8.43304348 40.2885022,8.08543478 C39.9474444,7.73782609 39.3777756,7.41471014 38.5822837,7.11608696 C36.4169847,6.29746377 35.3352645,5.09826087 35.3352645,3.52130435 C35.3352645,2.49072464 35.7144241,1.64572464 36.4736728,0.988188406 C37.2301335,0.329710145 38.2393673,0.000942028986 39.5013742,0.000942028986 C40.6267721,0.000942028986 41.5616609,0.199710145 42.3078992,0.596304348 L41.8125754,2.23355072 C41.1155907,1.8492029 40.3275334,1.65702899 39.4456154,1.65702899 C38.7486307,1.65702899 38.2040534,1.83130435 37.813742,2.17797101 C37.4838359,2.48789855 37.3184182,2.86565217 37.3184182,3.31311594 C37.3184182,3.80862319 37.5070687,4.2184058 37.8862284,4.54057971 C38.2161345,4.83826087 38.8155413,5.16043478 39.6853782,5.50804348 C40.7494414,5.94231884 41.5309936,6.45007246 42.0337519,7.03224638 C42.5346515,7.61253623 42.7846367,8.33884058 42.7846367,9.20550725 Z" id="Shape"></path>
                    <path d="M49.3353633,5.18869565 L47.151478,5.18869565 L47.151478,9.5776087 C47.151478,10.693913 47.5362135,11.2515942 48.3075433,11.2515942 C48.6616115,11.2515942 48.9552743,11.2205072 49.1876026,11.1583333 L49.242432,12.6834783 C48.8521206,12.8313768 48.3382106,12.9057971 47.7016312,12.9057971 C46.9191498,12.9057971 46.3076619,12.6636957 45.8662383,12.1804348 C45.4266733,11.6962319 45.2054968,10.8842029 45.2054968,9.7434058 L45.2054968,5.18681159 L43.9044587,5.18681159 L43.9044587,3.67956522 L45.2054968,3.67956522 L45.2054968,2.02442029 L47.151478,1.42905797 L47.151478,3.67956522 L49.3353633,3.67956522 L49.3353633,5.18869565 Z" id="Shape"></path>
                    <path d="M59.188868,8.12688406 C59.188868,9.51637681 58.796698,10.6571739 58.0142165,11.5492754 C57.1936332,12.4677536 56.1044785,12.9255797 54.7467523,12.9255797 C53.4382798,12.9255797 52.39652,12.4856522 51.6196144,11.6057971 C50.8427088,10.725942 50.4542561,9.61528986 50.4542561,8.27666667 C50.4542561,6.87586957 50.8538606,5.72847826 51.6558576,4.83637681 C52.455996,3.94333333 53.5358576,3.49681159 54.8935838,3.49681159 C56.2020564,3.49681159 57.2549679,3.93673913 58.0495304,4.81753623 C58.8097084,5.67195652 59.188868,6.77507246 59.188868,8.12688406 Z M57.1332279,8.19188406 C57.1332279,7.35818841 56.9575877,6.64318841 56.6016609,6.04688406 C56.186258,5.32528986 55.5924271,4.96543478 54.822956,4.96543478 C54.0265348,4.96543478 53.4215522,5.32623188 53.0061493,6.04688406 C52.6502224,6.64413043 52.4745823,7.37043478 52.4745823,8.22956522 C52.4745823,9.06326087 52.6502224,9.77826087 53.0061493,10.3736232 C53.4345625,11.0952174 54.03304,11.4550725 54.8052991,11.4550725 C55.5617598,11.4550725 56.1555907,11.0876812 56.584004,10.3547826 C56.9492239,9.74717391 57.1332279,9.02463768 57.1332279,8.19188406 Z" id="Shape"></path>
                    <path d="M65.6290064,5.44775362 C65.4329214,5.41101449 65.223826,5.39217391 65.0045082,5.39217391 C64.3075235,5.39217391 63.768522,5.65876812 63.3893623,6.19289855 C63.0594563,6.66391304 62.8940386,7.25927536 62.8940386,7.97804348 L62.8940386,12.7211594 L60.9136728,12.7211594 L60.932259,6.52826087 C60.932259,5.48637681 60.9071676,4.53775362 60.857914,3.6823913 L62.583648,3.6823913 L62.6561345,5.41195652 L62.7109639,5.41195652 C62.9200593,4.81753623 63.2499654,4.33898551 63.7016115,3.98007246 C64.1430351,3.65695652 64.6197726,3.49586957 65.1336826,3.49586957 C65.3167573,3.49586957 65.482175,3.50905797 65.6290064,3.5326087 L65.6290064,5.44775362 Z" id="Shape"></path>
                    <path d="M74.4900049,7.77362319 C74.4900049,8.13347826 74.4667721,8.43681159 74.4175185,8.68456522 L68.4736332,8.68456522 C68.496866,9.5776087 68.7840237,10.2605797 69.3360356,10.7315942 C69.8369352,11.1526812 70.4846663,11.3636957 71.2801582,11.3636957 C72.1602175,11.3636957 72.9631438,11.2214493 73.68522,10.9360145 L73.9956105,12.3302174 C73.1517944,12.7032609 72.1555709,12.8888406 71.0060109,12.8888406 C69.6231933,12.8888406 68.5377558,12.4762319 67.7478398,11.6519565 C66.9597825,10.8276812 66.5648245,9.7207971 66.5648245,8.33224638 C66.5648245,6.96913043 66.9319031,5.83398551 67.6669896,4.92869565 C68.4364607,3.96217391 69.4763618,3.47891304 70.7848344,3.47891304 C72.0700741,3.47891304 73.0430648,3.96217391 73.7038062,4.92869565 C74.2270094,5.69644928 74.4900049,6.64601449 74.4900049,7.77362319 Z M72.6007118,7.25268116 C72.6137222,6.65731884 72.4845477,6.14297101 72.2159763,5.70869565 C71.8730598,5.15007246 71.3461394,4.87123188 70.6370737,4.87123188 C69.9893426,4.87123188 69.4624221,5.14347826 69.0600297,5.68985507 C68.7301236,6.12413043 68.5340386,6.64507246 68.4736332,7.25173913 L72.6007118,7.25173913 L72.6007118,7.25268116 Z" id="Shape"></path>
                </g>
                <g id="Group" transform="translate(28.808700, 0.628019)">
                    <path d="M5.62234305,3.7765942 C5.62234305,4.88536232 5.2942956,5.72 4.63913,6.28050725 C4.03228868,6.79768116 3.16988631,7.05673913 2.0528522,7.05673913 C1.49898171,7.05673913 1.02503213,7.03224638 0.628215522,6.98326087 L0.628215522,0.925072464 C1.14584281,0.840289855 1.70343055,0.796956522 2.30562531,0.796956522 C3.36968858,0.796956522 4.17168562,1.03152174 4.71254572,1.50065217 C5.31845774,2.03101449 5.62234305,2.78934783 5.62234305,3.7765942 Z M4.5954523,3.80391304 C4.5954523,3.08514493 4.40773109,2.53405797 4.03228868,2.14971014 C3.65684627,1.76630435 3.10855166,1.57413043 2.38647553,1.57413043 C2.07980227,1.57413043 1.81866535,1.59485507 1.60213544,1.63818841 L1.60213544,6.24376812 C1.72201681,6.2626087 1.94133465,6.27108696 2.26008898,6.27108696 C3.00539792,6.27108696 3.58064261,6.06101449 3.98582304,5.64086957 C4.39100346,5.22072464 4.5954523,4.6084058 4.5954523,3.80391304 Z" id="Shape"></path>
                    <path d="M11.0671873,4.745 C11.0671873,5.42797101 10.8748196,5.98753623 10.490084,6.42652174 C10.0867622,6.87775362 9.55240732,7.10289855 8.88516065,7.10289855 C8.24207612,7.10289855 7.73002472,6.88717391 7.34807711,6.45384058 C6.96705882,6.02144928 6.77654968,5.47601449 6.77654968,4.81847826 C6.77654968,4.1307971 6.9726347,3.56652174 7.36666337,3.12847826 C7.76069204,2.69043478 8.2904004,2.47094203 8.95764706,2.47094203 C9.60073159,2.47094203 10.1174296,2.68666667 10.5086703,3.11905797 C10.8803955,3.5392029 11.0671873,4.08181159 11.0671873,4.745 Z M10.0570242,4.77702899 C10.0570242,4.36724638 9.96966881,4.01586957 9.7958873,3.72289855 C9.59143846,3.36869565 9.30056352,3.1915942 8.92233317,3.1915942 C8.53109244,3.1915942 8.23371231,3.36869565 8.02926347,3.72289855 C7.85455264,4.01586957 7.76812654,4.37289855 7.76812654,4.79492754 C7.76812654,5.20471014 7.85548196,5.55608696 8.02926347,5.84905797 C8.2402175,6.20326087 8.53388038,6.38036232 8.91304004,6.38036232 C9.2847652,6.38036232 9.57656945,6.20043478 9.78659417,5.83963768 C9.96688087,5.54101449 10.0570242,5.18681159 10.0570242,4.77702899 Z" id="Shape"></path>
                    <path d="M18.3678695,2.56137681 L16.997133,7.00210145 L16.1049926,7.00210145 L15.5371824,5.07376812 C15.3931389,4.5923913 15.2760455,4.11384058 15.1849728,3.63905797 L15.1673159,3.63905797 C15.0827484,4.12702899 14.965655,4.60463768 14.8151063,5.07376812 L14.2119822,7.00210145 L13.3096194,7.00210145 L12.0206624,2.56137681 L13.0215324,2.56137681 L13.5168562,4.67246377 C13.6367375,5.17173913 13.7352447,5.64746377 13.8142363,6.09775362 L13.8318932,6.09775362 C13.9043796,5.7265942 14.024261,5.25369565 14.1933959,4.68188406 L14.8151063,2.56231884 L15.6087395,2.56231884 L16.2044291,4.63666667 C16.3484726,5.14253623 16.465566,5.62956522 16.5557093,6.09869565 L16.5826594,6.09869565 C16.6486406,5.64181159 16.7480771,5.15478261 16.8800395,4.63666667 L17.4116065,2.56231884 L18.3678695,2.56231884 L18.3678695,2.56137681 Z" id="Shape"></path>
                    <path d="M23.4168265,7.00210145 L22.4429066,7.00210145 L22.4429066,4.45862319 C22.4429066,3.67485507 22.1492437,3.28297101 21.5600593,3.28297101 C21.271043,3.28297101 21.0377855,3.39036232 20.8565695,3.60608696 C20.6772121,3.82181159 20.5861394,4.07615942 20.5861394,4.36724638 L20.5861394,7.00115942 L19.6122195,7.00115942 L19.6122195,3.83028986 C19.6122195,3.44028986 19.6001384,3.01731884 19.5769056,2.55949275 L20.4328028,2.55949275 L20.4783391,3.25376812 L20.5052892,3.25376812 C20.6186653,3.03804348 20.7878003,2.86 21.0099061,2.71775362 C21.2738309,2.55195652 21.5693524,2.46811594 21.8927533,2.46811594 C22.301651,2.46811594 22.6417795,2.60188406 22.9122096,2.87036232 C23.2486209,3.19913043 23.4168265,3.68992754 23.4168265,4.34181159 L23.4168265,7.00210145 Z" id="Shape"></path>
                    <polygon id="Shape" points="26.1025408 7.00210145 25.1295502 7.00210145 25.1295502 0.523768116 26.1025408 0.523768116"></polygon>
                    <path d="M31.8364014,4.745 C31.8364014,5.42797101 31.6440336,5.98753623 31.2592981,6.42652174 C30.8559763,6.87775362 30.320692,7.10289855 29.6543747,7.10289855 C29.0103609,7.10289855 28.4983094,6.88717391 28.1172912,6.45384058 C27.7362729,6.02144928 27.5457637,5.47601449 27.5457637,4.81847826 C27.5457637,4.1307971 27.7418487,3.56652174 28.1358774,3.12847826 C28.5299061,2.69043478 29.0596144,2.47094203 29.7259318,2.47094203 C30.3699456,2.47094203 30.8857143,2.68666667 31.2778843,3.11905797 C31.6496095,3.5392029 31.8364014,4.08181159 31.8364014,4.745 Z M30.8253089,4.77702899 C30.8253089,4.36724638 30.7379535,4.01586957 30.564172,3.72289855 C30.3606525,3.36869565 30.0688482,3.1915942 29.6915472,3.1915942 C29.2993772,3.1915942 29.001997,3.36869565 28.7984775,3.72289855 C28.6237667,4.01586957 28.5373406,4.37289855 28.5373406,4.79492754 C28.5373406,5.20471014 28.624696,5.55608696 28.7984775,5.84905797 C29.0094315,6.20326087 29.3030944,6.38036232 29.6822541,6.38036232 C30.0539792,6.38036232 30.3448542,6.20043478 30.5548789,5.83963768 C30.7360949,5.54101449 30.8253089,5.18681159 30.8253089,4.77702899 Z" id="Shape"></path>
                    <path d="M36.5498764,7.00210145 L35.675393,7.00210145 L35.6029066,6.49057971 L35.5759565,6.49057971 C35.2767177,6.89847826 34.8501631,7.10289855 34.2962926,7.10289855 C33.8827484,7.10289855 33.5481957,6.96818841 33.296352,6.70065217 C33.067741,6.4576087 32.9534355,6.15521739 32.9534355,5.79630435 C32.9534355,5.25369565 33.1764706,4.84014493 33.6253287,4.55376812 C34.0732575,4.2673913 34.7033317,4.12702899 35.5146218,4.13362319 L35.5146218,4.05072464 C35.5146218,3.46572464 35.2116658,3.17369565 34.6048245,3.17369565 C34.172694,3.17369565 33.7916757,3.28391304 33.462699,3.50246377 L33.2647553,2.85434783 C33.6717944,2.59905797 34.1745526,2.47094203 34.7674543,2.47094203 C35.9123678,2.47094203 36.4866831,3.08326087 36.4866831,4.30789855 L36.4866831,5.94326087 C36.4866831,6.38695652 36.5080573,6.74021739 36.5498764,7.00210145 Z M35.538784,5.47601449 L35.538784,4.79115942 C34.4644983,4.77231884 33.9273554,5.07094203 33.9273554,5.68608696 C33.9273554,5.91782609 33.9886901,6.09115942 34.1141473,6.20702899 C34.2396045,6.32289855 34.3994464,6.38036232 34.5899555,6.38036232 C34.8036975,6.38036232 35.0034998,6.3115942 35.1856451,6.175 C35.3687197,6.03746377 35.4811666,5.86318841 35.5229857,5.64934783 C35.5332081,5.60130435 35.538784,5.54289855 35.538784,5.47601449 Z" id="Shape"></path>
                    <path d="M42.0839348,7.00210145 L41.2196738,7.00210145 L41.1741374,6.28898551 L41.1471873,6.28898551 C40.8711814,6.8315942 40.4009491,7.10289855 39.7402076,7.10289855 C39.2123579,7.10289855 38.7727929,6.89282609 38.4243005,6.47268116 C38.0758082,6.05253623 37.9020267,5.50710145 37.9020267,4.83731884 C37.9020267,4.11855072 38.0906772,3.53637681 38.4698369,3.09173913 C38.8369155,2.67724638 39.2867029,2.47 39.8219871,2.47 C40.4102422,2.47 40.8219278,2.67065217 41.0561147,3.07289855 L41.0747009,3.07289855 L41.0747009,0.523768116 L42.0495502,0.523768116 L42.0495502,5.80572464 C42.0495502,6.23811594 42.0607019,6.6365942 42.0839348,7.00210145 Z M41.0747009,5.12934783 L41.0747009,4.38891304 C41.0747009,4.2607971 41.0654078,4.15717391 41.0477509,4.07804348 C40.9929214,3.84065217 40.8748987,3.64094203 40.6955413,3.47985507 C40.5143253,3.31876812 40.2959367,3.23775362 40.0440929,3.23775362 C39.6807316,3.23775362 39.3963618,3.38376812 39.1872664,3.67673913 C38.9800297,3.96971014 38.8750173,4.34369565 38.8750173,4.80057971 C38.8750173,5.23956522 38.9744538,5.59565217 39.1742561,5.86978261 C39.3852101,6.16181159 39.6695798,6.30782609 40.0255067,6.30782609 C40.3451903,6.30782609 40.6007514,6.18630435 40.7949778,5.94231884 C40.982699,5.71717391 41.0747009,5.44586957 41.0747009,5.12934783 Z" id="Shape"></path>
                    <path d="M50.4133663,4.745 C50.4133663,5.42797101 50.2209985,5.98753623 49.836263,6.42652174 C49.4329412,6.87775362 48.8995156,7.10289855 48.2313396,7.10289855 C47.5891844,7.10289855 47.077133,6.88717391 46.6942561,6.45384058 C46.3132378,6.02144928 46.1227286,5.47601449 46.1227286,4.81847826 C46.1227286,4.1307971 46.3188136,3.56652174 46.7128423,3.12847826 C47.106871,2.69043478 47.6365793,2.47094203 48.3047553,2.47094203 C48.9469105,2.47094203 49.4645378,2.68666667 49.8548492,3.11905797 C50.2265744,3.5392029 50.4133663,4.08181159 50.4133663,4.745 Z M49.4041325,4.77702899 C49.4041325,4.36724638 49.3167771,4.01586957 49.1429956,3.72289855 C48.9376174,3.36869565 48.6476718,3.1915942 48.2685121,3.1915942 C47.8782007,3.1915942 47.5808206,3.36869565 47.3754424,3.72289855 C47.2007316,4.01586957 47.1143055,4.37289855 47.1143055,4.79492754 C47.1143055,5.20471014 47.2016609,5.55608696 47.3754424,5.84905797 C47.5863964,6.20326087 47.8800593,6.38036232 48.259219,6.38036232 C48.6309441,6.38036232 48.9236777,6.20043478 49.1337024,5.83963768 C49.3130598,5.54101449 49.4041325,5.18681159 49.4041325,4.77702899 Z" id="Shape"></path>
                    <path d="M55.6500445,7.00210145 L54.6770539,7.00210145 L54.6770539,4.45862319 C54.6770539,3.67485507 54.383391,3.28297101 53.7932773,3.28297101 C53.504261,3.28297101 53.2710035,3.39036232 53.0907168,3.60608696 C52.9104301,3.82181159 52.8202867,4.07615942 52.8202867,4.36724638 L52.8202867,7.00115942 L51.8454375,7.00115942 L51.8454375,3.83028986 C51.8454375,3.44028986 51.8342857,3.01731884 51.8110529,2.55949275 L52.6660208,2.55949275 L52.7115571,3.25376812 L52.7385072,3.25376812 C52.8528127,3.03804348 53.0219476,2.86 53.2431241,2.71775362 C53.5079783,2.55195652 53.8025704,2.46811594 54.1269006,2.46811594 C54.534869,2.46811594 54.8749975,2.60188406 55.1454276,2.87036232 C55.4827682,3.19913043 55.6500445,3.68992754 55.6500445,4.34181159 L55.6500445,7.00210145 Z" id="Shape"></path>
                    <path d="M62.2044884,3.30086957 L61.1320613,3.30086957 L61.1320613,5.45811594 C61.1320613,6.00637681 61.3225704,6.28050725 61.6998715,6.28050725 C61.8745823,6.28050725 62.0195551,6.26543478 62.1338606,6.23434783 L62.1589521,6.98326087 C61.9665843,7.05673913 61.7138112,7.09347826 61.4024913,7.09347826 C61.0177558,7.09347826 60.7185171,6.97478261 60.5019871,6.7373913 C60.2845279,6.5 60.1767276,6.10057971 60.1767276,5.54007246 L60.1767276,3.30086957 L59.536431,3.30086957 L59.536431,2.56137681 L60.1767276,2.56137681 L60.1767276,1.74746377 L61.131132,1.45543478 L61.131132,2.56043478 L62.2035591,2.56043478 L62.2035591,3.30086957 L62.2044884,3.30086957 Z" id="Shape"></path>
                    <path d="M67.3603164,7.00210145 L66.3854671,7.00210145 L66.3854671,4.47746377 C66.3854671,3.68144928 66.0918043,3.28297101 65.5035492,3.28297101 C65.0519031,3.28297101 64.7433712,3.51376812 64.5742363,3.97536232 C64.5454276,4.0723913 64.5287,4.19108696 64.5287,4.33050725 L64.5287,7.00115942 L63.5557093,7.00115942 L63.5557093,0.523768116 L64.5287,0.523768116 L64.5287,3.20007246 L64.5472862,3.20007246 C64.8539595,2.71304348 65.2935245,2.47 65.8631933,2.47 C66.2665151,2.47 66.6001384,2.60376812 66.8649926,2.87224638 C67.1948987,3.20666667 67.3603164,3.70405797 67.3603164,4.3615942 L67.3603164,7.00210145 Z" id="Shape"></path>
                    <path d="M72.6787741,4.57166667 C72.6787741,4.74876812 72.6657637,4.8976087 72.6425309,5.01913043 L69.7217004,5.01913043 C69.7347108,5.45811594 69.8741078,5.79253623 70.1445378,6.02427536 C70.391735,6.23152174 70.7104894,6.33514493 71.1008008,6.33514493 C71.5329313,6.33514493 71.92696,6.26543478 72.2819575,6.12507246 L72.4343648,6.81086957 C72.0189619,6.99362319 71.5301434,7.085 70.9641918,7.085 C70.2857934,7.085 69.7514385,6.88246377 69.3648443,6.4773913 C68.9763915,6.07231884 68.7840237,5.52876812 68.7840237,4.84673913 C68.7840237,4.17695652 68.9633811,3.61927536 69.3248838,3.17463768 C69.7021849,2.69985507 70.2123777,2.46246377 70.8563915,2.46246377 C71.4864656,2.46246377 71.9650618,2.69985507 72.2884627,3.17463768 C72.5495996,3.55144928 72.6787741,4.01775362 72.6787741,4.57166667 Z M71.7494612,4.31637681 C71.7568957,4.0234058 71.6927731,3.77094203 71.5608107,3.55804348 C71.3916757,3.28391304 71.1342561,3.14637681 70.7857637,3.14637681 C70.4679387,3.14637681 70.2086604,3.28014493 70.0107168,3.54862319 C69.8490163,3.76246377 69.7532971,4.01775362 69.7217004,4.31637681 L71.7494612,4.31637681 Z" id="Shape"></path>
                </g>
            </g>
        </g>
    </g>
</svg>