<?xml version="1.0" encoding="UTF-8"?>
<svg width="55px" height="35px" viewBox="0 0 55 35" version="1.1" xmlns="http://www.w3.org/2000/svg" xmlns:xlink="http://www.w3.org/1999/xlink">
    <!-- Generator: Sketch 51.3 (57544) - http://www.bohemiancoding.com/sketch -->
    <title>Group 8</title>
    <desc>Created with Sketch.</desc>
    <defs></defs>
    <g id="Symbols" stroke="none" stroke-width="1" fill="none" fill-rule="evenodd">
        <g id="footer" transform="translate(-1146.000000, -161.000000)" fill-rule="nonzero">
            <g id="Group-22">
                <g id="Group-24" transform="translate(0.000000, 161.000000)">
                    <g id="Group-20">
                        <g id="Group-13" transform="translate(1016.000000, 0.000000)">
                            <g id="Group-8" transform="translate(130.000000, 0.000000)">
                                <rect id="Rectangle-Copy-2" fill="#F8F8F8" x="0" y="0" width="55" height="35"></rect>
                                <g id="american-express" transform="translate(8.000000, 11.000000)">
                                    <polygon id="Shape" fill="#2FABF7" points="3.42857143 3.46031746 4.82539683 3.46031746 4.12698413 1.68253968"></polygon>
                                    <path d="M20.7619048,1.93650794 C20.6349206,1.87301587 20.4444444,1.87301587 20.2539683,1.87301587 L18.984127,1.87301587 L18.984127,2.88888889 L20.2539683,2.88888889 C20.4444444,2.88888889 20.6349206,2.88888889 20.7619048,2.82539683 C20.8888889,2.76190476 20.952381,2.57142857 20.952381,2.38095238 C21.015873,2.12698413 20.8888889,2 20.7619048,1.93650794 Z" id="Shape" fill="#228FE0"></path>
                                    <path d="M34.3492063,0.0317460317 L34.3492063,0.793650794 L33.968254,0.0317460317 L30.984127,0.0317460317 L30.984127,0.793650794 L30.6031746,0.0317460317 L26.5396825,0.0317460317 C25.8412698,0.0317460317 25.2698413,0.158730159 24.7619048,0.412698413 L24.7619048,0.0317460317 L21.9047619,0.0317460317 L21.9047619,0.412698413 C21.5873016,0.158730159 21.2063492,0.0317460317 20.6984127,0.0317460317 L10.4761905,0.0317460317 L9.77777778,1.61904762 L9.07936508,0.0317460317 L5.84126984,0.0317460317 L5.84126984,0.793650794 L5.46031746,0.0317460317 L2.73015873,0.0317460317 L1.46031746,3.01587302 L0,6.31746032 L1.46031746,6.31746032 L3.23809524,6.31746032 L3.61904762,5.3015873 L4.50793651,5.3015873 L4.88888889,6.31746032 L8.57142857,6.31746032 L8.57142857,5.55555556 L8.88888889,6.31746032 L10.7301587,6.31746032 L11.047619,5.55555556 L11.047619,6.31746032 L19.8730159,6.31746032 L19.8730159,4.66666667 L20,4.66666667 C20.1269841,4.66666667 20.1269841,4.66666667 20.1269841,4.85714286 L20.1269841,6.25396825 L24.6984127,6.25396825 L24.6984127,5.87301587 C25.0793651,6.06349206 25.6507937,6.25396825 26.4126984,6.25396825 L28.3174603,6.25396825 L28.6984127,5.23809524 L29.5873016,5.23809524 L29.968254,6.25396825 L33.6507937,6.25396825 L33.6507937,5.3015873 L34.2222222,6.25396825 L37.2063492,6.25396825 L37.2063492,0.0317460317 L34.3492063,0.0317460317 Z M12.8888889,5.36507937 L11.8095238,5.36507937 L11.8095238,1.87301587 L10.2857143,5.36507937 L9.33333333,5.36507937 L7.80952381,1.87301587 L7.80952381,5.36507937 L5.65079365,5.36507937 L5.20634921,4.41269841 L3.04761905,4.41269841 L2.66666667,5.42857143 L1.46031746,5.42857143 L3.36507937,0.920634921 L4.95238095,0.920634921 L6.73015873,5.17460317 L6.73015873,0.920634921 L8.44444444,0.920634921 L9.84126984,3.96825397 L11.1111111,0.920634921 L12.8888889,0.920634921 L12.8888889,5.36507937 Z M17.2063492,1.87301587 L14.7301587,1.87301587 L14.7301587,2.6984127 L17.1428571,2.6984127 L17.1428571,3.58730159 L14.7301587,3.58730159 L14.7301587,4.47619048 L17.2063492,4.47619048 L17.2063492,5.42857143 L13.6507937,5.42857143 L13.6507937,0.920634921 L17.2063492,0.920634921 L17.2063492,1.87301587 Z M21.968254,3.71428571 C22.0952381,3.96825397 22.1587302,4.15873016 22.1587302,4.53968254 L22.1587302,5.42857143 L21.0793651,5.42857143 L21.0793651,4.85714286 C21.0793651,4.6031746 21.0793651,4.22222222 20.8888889,3.96825397 C20.6984127,3.77777778 20.5079365,3.77777778 20.1269841,3.77777778 L18.984127,3.77777778 L18.984127,5.42857143 L17.9047619,5.42857143 L17.9047619,0.920634921 L20.3174603,0.920634921 C20.8888889,0.920634921 21.2698413,0.920634921 21.5873016,1.11111111 C21.9047619,1.3015873 22.0952381,1.61904762 22.0952381,2.12698413 C22.0952381,2.82539683 21.6507937,3.20634921 21.3333333,3.33333333 C21.6507937,3.3968254 21.8412698,3.58730159 21.968254,3.71428571 Z M23.8730159,5.36507937 L22.7936508,5.36507937 L22.7936508,0.857142857 L23.8730159,0.857142857 L23.8730159,5.36507937 Z M36.3809524,5.36507937 L34.8571429,5.36507937 L32.8253968,2 L32.8253968,5.36507937 L30.6666667,5.36507937 L30.2857143,4.41269841 L28.0634921,4.41269841 L27.6825397,5.42857143 L26.4761905,5.42857143 C25.968254,5.42857143 25.3333333,5.3015873 24.952381,4.92063492 C24.5714286,4.53968254 24.3809524,4.03174603 24.3809524,3.20634921 C24.3809524,2.57142857 24.5079365,1.93650794 24.952381,1.42857143 C25.2698413,1.04761905 25.8412698,0.920634921 26.5396825,0.920634921 L27.5555556,0.920634921 L27.5555556,1.87301587 L26.5396825,1.87301587 C26.1587302,1.87301587 25.968254,1.93650794 25.7142857,2.12698413 C25.5238095,2.31746032 25.3968254,2.6984127 25.3968254,3.14285714 C25.3968254,3.65079365 25.4603175,3.96825397 25.7142857,4.22222222 C25.9047619,4.41269841 26.1587302,4.47619048 26.4761905,4.47619048 L26.9206349,4.47619048 L28.3809524,0.984126984 L29.968254,0.984126984 L31.7460317,5.23809524 L31.7460317,0.984126984 L33.3333333,0.984126984 L35.1746032,4.0952381 L35.1746032,0.984126984 L36.2539683,0.984126984 L36.2539683,5.36507937 L36.3809524,5.36507937 Z" id="Shape" fill="#0571C1"></path>
                                    <g id="Group" transform="translate(15.952381, 1.666667)" fill="#228FE0">
                                        <polygon id="Shape" points="12.4920635 1.79365079 13.952381 1.79365079 13.2539683 0.0158730159"></polygon>
                                        <polygon id="Shape" points="1.6984127 10.9365079 1.6984127 7.31746032 0.0476190476 9.0952381"></polygon>
                                    </g>
                                    <polygon id="Shape" fill="#2FABF7" points="10.8571429 9.42857143 10.8571429 10.2539683 13.2063492 10.2539683 13.2063492 11.1428571 10.8571429 11.1428571 10.8571429 12.0952381 13.4603175 12.0952381 14.6666667 10.7619048 13.5238095 9.42857143"></polygon>
                                    <path d="M20.0634921,9.42857143 L18.7301587,9.42857143 L18.7301587,10.5714286 L20.1269841,10.5714286 C20.5079365,10.5714286 20.7619048,10.3809524 20.7619048,10 C20.6984127,9.61904762 20.4444444,9.42857143 20.0634921,9.42857143 Z" id="SVGCleanerId_0" fill="#228FE0"></path>
                                    <path d="M39.6825397,10.5079365 L39.6825397,7.65079365 L38.9206349,7.65079365 L37.015873,7.65079365 C36.4444444,7.65079365 36,7.77777778 35.6825397,8.03174603 L35.6825397,7.65079365 L32.7619048,7.65079365 C32.3174603,7.65079365 31.7460317,7.77777778 31.4920635,8.03174603 L31.4920635,7.65079365 L26.3492063,7.65079365 L26.3492063,8.03174603 C25.968254,7.71428571 25.2698413,7.65079365 24.952381,7.65079365 L21.5238095,7.65079365 L21.5238095,8.03174603 C21.2063492,7.71428571 20.4444444,7.65079365 20.0634921,7.65079365 L16.2539683,7.65079365 L15.3650794,8.6031746 L14.5396825,7.65079365 L8.82539683,7.65079365 L8.82539683,13.8730159 L14.4126984,13.8730159 L15.3015873,12.9206349 L16.1269841,13.8730159 L19.5555556,13.8730159 L19.5555556,12.4126984 L20,12.4126984 C20.4444444,12.4126984 21.015873,12.4126984 21.4603175,12.2222222 L21.4603175,13.9365079 L24.3174603,13.9365079 L24.3174603,12.2857143 L24.4444444,12.2857143 C24.6349206,12.2857143 24.6349206,12.2857143 24.6349206,12.4761905 L24.6349206,13.9365079 L33.2698413,13.9365079 C33.8412698,13.9365079 34.4126984,13.8095238 34.7301587,13.5555556 L34.7301587,13.9365079 L37.4603175,13.9365079 C38.031746,13.9365079 38.6031746,13.8730159 38.984127,13.6190476 C39.6190476,13.2380952 40,12.5396825 40,11.7142857 C40,11.2698413 39.8730159,10.8253968 39.6825397,10.5079365 Z M20,11.5238095 L18.7301587,11.5238095 L18.7301587,13.047619 L16.6984127,13.047619 L15.4285714,11.5873016 L14.0952381,13.047619 L9.9047619,13.047619 L9.9047619,8.53968254 L14.1587302,8.53968254 L15.4285714,10 L16.7619048,8.53968254 L20.1269841,8.53968254 C20.952381,8.53968254 21.9047619,8.79365079 21.9047619,10 C21.8412698,11.2698413 20.952381,11.5238095 20,11.5238095 Z M26.3492063,11.2698413 C26.4761905,11.4603175 26.5396825,11.7142857 26.5396825,12.0952381 L26.5396825,12.984127 L25.4603175,12.984127 L25.4603175,12.4126984 C25.4603175,12.1587302 25.4603175,11.7142857 25.2698413,11.5238095 C25.1428571,11.3333333 24.8888889,11.3333333 24.5079365,11.3333333 L23.3650794,11.3333333 L23.3650794,12.984127 L22.2857143,12.984127 L22.2857143,8.47619048 L24.6984127,8.47619048 C25.2063492,8.47619048 25.6507937,8.47619048 25.968254,8.66666667 C26.2857143,8.85714286 26.5396825,9.17460317 26.5396825,9.68253968 C26.5396825,10.3809524 26.0952381,10.7619048 25.7777778,10.8888889 C26.0952381,11.015873 26.2857143,11.1428571 26.3492063,11.2698413 Z M30.7301587,9.42857143 L28.2539683,9.42857143 L28.2539683,10.2539683 L30.6666667,10.2539683 L30.6666667,11.1428571 L28.2539683,11.1428571 L28.2539683,12.031746 L30.7301587,12.031746 L30.7301587,12.984127 L27.1746032,12.984127 L27.1746032,8.47619048 L30.7301587,8.47619048 L30.7301587,9.42857143 Z M33.3968254,12.984127 L31.3650794,12.984127 L31.3650794,12.031746 L33.3968254,12.031746 C33.5873016,12.031746 33.7142857,12.031746 33.8412698,11.9047619 C33.9047619,11.8412698 33.968254,11.7142857 33.968254,11.5873016 C33.968254,11.4603175 33.9047619,11.3333333 33.8412698,11.2698413 C33.7777778,11.2063492 33.6507937,11.1428571 33.4603175,11.1428571 C32.4444444,11.0793651 31.2380952,11.1428571 31.2380952,9.74603175 C31.2380952,9.11111111 31.6190476,8.41269841 32.7619048,8.41269841 L34.8571429,8.41269841 L34.8571429,9.49206349 L32.8888889,9.49206349 C32.6984127,9.49206349 32.5714286,9.49206349 32.4444444,9.55555556 C32.3174603,9.61904762 32.3174603,9.74603175 32.3174603,9.87301587 C32.3174603,10.0634921 32.4444444,10.1269841 32.5714286,10.1904762 C32.6984127,10.2539683 32.8253968,10.2539683 32.952381,10.2539683 L33.5238095,10.2539683 C34.0952381,10.2539683 34.4761905,10.3809524 34.7301587,10.6349206 C34.9206349,10.8253968 35.047619,11.1428571 35.047619,11.5873016 C35.047619,12.5396825 34.4761905,12.984127 33.3968254,12.984127 Z M38.8571429,12.5396825 C38.6031746,12.7936508 38.1587302,12.984127 37.5238095,12.984127 L35.4920635,12.984127 L35.4920635,12.031746 L37.5238095,12.031746 C37.7142857,12.031746 37.8412698,12.031746 37.968254,11.9047619 C38.031746,11.8412698 38.0952381,11.7142857 38.0952381,11.5873016 C38.0952381,11.4603175 38.031746,11.3333333 37.968254,11.2698413 C37.9047619,11.2063492 37.7777778,11.1428571 37.5873016,11.1428571 C36.5714286,11.0793651 35.3650794,11.1428571 35.3650794,9.74603175 C35.3650794,9.11111111 35.7460317,8.41269841 36.8888889,8.41269841 L38.984127,8.41269841 L38.984127,9.49206349 L37.0793651,9.49206349 C36.8888889,9.49206349 36.7619048,9.49206349 36.6349206,9.55555556 C36.5079365,9.61904762 36.5079365,9.74603175 36.5079365,9.87301587 C36.5079365,10.0634921 36.5714286,10.1269841 36.7619048,10.1904762 C36.8888889,10.2539683 37.015873,10.2539683 37.1428571,10.2539683 L37.7142857,10.2539683 C38.2857143,10.2539683 38.6666667,10.3809524 38.9206349,10.6349206 C38.984127,10.6349206 38.984127,10.6984127 38.984127,10.6984127 C39.1746032,10.952381 39.2380952,11.2698413 39.2380952,11.5873016 C39.2380952,11.968254 39.1111111,12.2857143 38.8571429,12.5396825 Z" id="Shape" fill="#0571C1"></path>
                                    <path d="M25.2063492,9.55555556 C25.0793651,9.49206349 24.8888889,9.49206349 24.6984127,9.49206349 L23.4285714,9.49206349 L23.4285714,10.5079365 L24.6984127,10.5079365 C24.8888889,10.5079365 25.0793651,10.5079365 25.2063492,10.4444444 C25.3333333,10.3809524 25.3968254,10.1904762 25.3968254,10 C25.4603175,9.74603175 25.3333333,9.61904762 25.2063492,9.55555556 Z" id="SVGCleanerId_1" fill="#228FE0"></path>
                                    <g id="Group" transform="translate(15.952381, 1.666667)" fill="#228FE0">
                                        <path d="M4.80952381,0.26984127 C4.68253968,0.206349206 4.49206349,0.206349206 4.3015873,0.206349206 L3.03174603,0.206349206 L3.03174603,1.22222222 L4.3015873,1.22222222 C4.49206349,1.22222222 4.68253968,1.22222222 4.80952381,1.15873016 C4.93650794,1.0952381 5,0.904761905 5,0.714285714 C5.06349206,0.46031746 4.93650794,0.333333333 4.80952381,0.26984127 Z" id="Shape"></path>
                                        <polygon id="Shape" points="12.4920635 1.79365079 13.952381 1.79365079 13.2539683 0.0158730159"></polygon>
                                        <polygon id="Shape" points="1.6984127 10.9365079 1.6984127 7.31746032 0.0476190476 9.0952381"></polygon>
                                    </g>
                                    <path d="M20.0634921,9.42857143 L18.7301587,9.42857143 L18.7301587,10.5714286 L20.1269841,10.5714286 C20.5079365,10.5714286 20.7619048,10.3809524 20.7619048,10 C20.6984127,9.61904762 20.4444444,9.42857143 20.0634921,9.42857143 Z" id="SVGCleanerId_0_1_" fill="#228FE0"></path>
                                    <path d="M25.2063492,9.55555556 C25.0793651,9.49206349 24.8888889,9.49206349 24.6984127,9.49206349 L23.4285714,9.49206349 L23.4285714,10.5079365 L24.6984127,10.5079365 C24.8888889,10.5079365 25.0793651,10.5079365 25.2063492,10.4444444 C25.3333333,10.3809524 25.3968254,10.1904762 25.3968254,10 C25.4603175,9.74603175 25.3333333,9.61904762 25.2063492,9.55555556 Z" id="SVGCleanerId_1_1_" fill="#228FE0"></path>
                                    <g id="Group" fill="#2FABF7">
                                        <polygon id="Shape" points="19.6190476 12.8571429 18.7301587 11.9047619 18.7301587 12.984127 16.6349206 12.984127 15.3650794 11.5238095 13.968254 12.984127 9.77777778 12.984127 9.77777778 8.53968254 14.031746 8.53968254 15.3650794 10 16 9.23809524 14.4126984 7.65079365 8.82539683 7.65079365 8.82539683 13.8730159 14.4126984 13.8730159 15.3650794 12.9206349 16.1904762 13.8730159 19.6190476 13.8730159"></polygon>
                                        <polygon id="Shape" points="13.015873 6.25396825 12.1904762 5.36507937 11.8095238 5.36507937 11.8095238 4.98412698 10.8571429 4.03174603 10.2222222 5.36507937 9.33333333 5.36507937 7.80952381 1.87301587 7.80952381 5.36507937 5.65079365 5.36507937 5.20634921 4.41269841 3.04761905 4.41269841 2.6031746 5.36507937 1.46031746 5.36507937 3.36507937 0.920634921 4.95238095 0.920634921 6.73015873 5.17460317 6.73015873 0.920634921 7.68253968 0.920634921 6.79365079 0.0317460317 5.84126984 0.0317460317 5.84126984 0.793650794 5.52380952 0.0317460317 2.73015873 0.0317460317 1.46031746 3.01587302 0 6.25396825 1.46031746 6.25396825 3.3015873 6.25396825 3.68253968 5.3015873 4.57142857 5.3015873 5.01587302 6.25396825 8.57142857 6.25396825 8.57142857 5.49206349 8.88888889 6.25396825 10.7301587 6.25396825 11.047619 5.49206349 11.047619 6.25396825"></polygon>
                                        <polygon id="Shape" points="10.0952381 3.33333333 9.07936508 2.31746032 9.84126984 3.96825397"></polygon>
                                    </g>
                                    <g id="Group" transform="translate(6.269841, 0.079365)" fill="#228FE0">
                                        <path d="M32.7142857,13.4761905 C33.2857143,13.0952381 33.6666667,12.4603175 33.7301587,11.7619048 L32.8412698,10.8730159 C32.9047619,11.0634921 32.968254,11.2539683 32.968254,11.5079365 C32.968254,11.8888889 32.8412698,12.2063492 32.5873016,12.4603175 C32.3333333,12.7142857 31.8888889,12.9047619 31.2539683,12.9047619 L29.2222222,12.9047619 L29.2222222,11.952381 L31.2539683,11.952381 C31.4444444,11.952381 31.5714286,11.952381 31.6984127,11.8253968 C31.7619048,11.7619048 31.8253968,11.6349206 31.8253968,11.5079365 C31.8253968,11.3809524 31.7619048,11.2539683 31.6984127,11.1904762 C31.6349206,11.1269841 31.5079365,11.0634921 31.3174603,11.0634921 C30.3015873,11 29.0952381,11.0634921 29.0952381,9.66666667 C29.0952381,9.03174603 29.4761905,8.46031746 30.4285714,8.33333333 L29.7301587,7.63492063 C29.6031746,7.6984127 29.5396825,7.76190476 29.4761905,7.76190476 L29.4761905,7.38095238 L26.5555556,7.38095238 C26.1111111,7.38095238 25.5396825,7.50793651 25.2857143,7.76190476 L25.2857143,7.38095238 L20.0793651,7.38095238 L20.0793651,7.76190476 C19.6984127,7.44444444 19,7.38095238 18.6825397,7.38095238 L15.2539683,7.38095238 L15.2539683,7.76190476 C14.9365079,7.44444444 14.1746032,7.38095238 13.7936508,7.38095238 L9.98412698,7.38095238 L9.0952381,8.33333333 L8.26984127,7.38095238 L7.57142857,7.38095238 L9.47619048,9.28571429 L10.4285714,8.26984127 L13.7936508,8.26984127 C14.6190476,8.26984127 15.5714286,8.52380952 15.5714286,9.73015873 C15.5714286,11 14.6825397,11.2539683 13.7301587,11.2539683 L12.4603175,11.2539683 L12.4603175,12.2063492 L13.4126984,13.1587302 L13.4126984,12.2063492 L13.7301587,12.2063492 C14.1746032,12.2063492 14.7460317,12.2063492 15.1904762,12.015873 L15.1904762,13.7301587 L18.047619,13.7301587 L18.047619,12.0793651 L18.1746032,12.0793651 C18.3650794,12.0793651 18.3650794,12.0793651 18.3650794,12.2698413 L18.3650794,13.7301587 L27,13.7301587 C27.5714286,13.7301587 28.1428571,13.6031746 28.4603175,13.3492063 L28.4603175,13.7301587 L31.1904762,13.7301587 C31.6984127,13.7936508 32.2698413,13.7301587 32.7142857,13.4761905 Z M20.0793651,11.1904762 C20.2063492,11.3809524 20.2698413,11.6349206 20.2698413,12.015873 L20.2698413,12.9047619 L19.1904762,12.9047619 L19.1904762,12.3333333 C19.1904762,12.0793651 19.1904762,11.6349206 19,11.4444444 C18.8730159,11.2539683 18.6190476,11.2539683 18.2380952,11.2539683 L17.0952381,11.2539683 L17.0952381,12.9047619 L16.015873,12.9047619 L16.015873,8.3968254 L18.4285714,8.3968254 C18.9365079,8.3968254 19.3809524,8.3968254 19.6984127,8.58730159 C20.015873,8.77777778 20.2698413,9.0952381 20.2698413,9.6031746 C20.2698413,10.3015873 19.8253968,10.6825397 19.5079365,10.8095238 C19.8253968,10.9365079 20.015873,11.0634921 20.0793651,11.1904762 Z M24.4603175,9.34920635 L21.984127,9.34920635 L21.984127,10.1746032 L24.3968254,10.1746032 L24.3968254,11.0634921 L21.984127,11.0634921 L21.984127,11.952381 L24.4603175,11.952381 L24.4603175,12.9047619 L20.9047619,12.9047619 L20.9047619,8.3968254 L24.4603175,8.3968254 L24.4603175,9.34920635 Z M27.1269841,12.9047619 L25.0952381,12.9047619 L25.0952381,11.952381 L27.1269841,11.952381 C27.3174603,11.952381 27.4444444,11.952381 27.5714286,11.8253968 C27.6349206,11.7619048 27.6984127,11.6349206 27.6984127,11.5079365 C27.6984127,11.3809524 27.6349206,11.2539683 27.5714286,11.1904762 C27.5079365,11.1269841 27.3809524,11.0634921 27.1904762,11.0634921 C26.1746032,11 24.968254,11.0634921 24.968254,9.66666667 C24.968254,9.03174603 25.3492063,8.33333333 26.4920635,8.33333333 L28.5873016,8.33333333 L28.5873016,9.41269841 L26.6190476,9.41269841 C26.4285714,9.41269841 26.3015873,9.41269841 26.1746032,9.47619048 C26.047619,9.53968254 26.047619,9.66666667 26.047619,9.79365079 C26.047619,9.98412698 26.1746032,10.047619 26.3015873,10.1111111 C26.4285714,10.1746032 26.5555556,10.1746032 26.6825397,10.1746032 L27.2539683,10.1746032 C27.8253968,10.1746032 28.2063492,10.3015873 28.4603175,10.5555556 C28.6507937,10.7460317 28.7777778,11.0634921 28.7777778,11.5079365 C28.7777778,12.4603175 28.2063492,12.9047619 27.1269841,12.9047619 Z" id="Shape"></path>
                                        <path d="M30.1746032,9.79365079 C30.1746032,9.98412698 30.2380952,10.047619 30.4285714,10.1111111 C30.5555556,10.1746032 30.6825397,10.1746032 30.8095238,10.1746032 L31.3809524,10.1746032 C31.7619048,10.1746032 32.015873,10.2380952 32.2698413,10.3650794 L31.3174603,9.41269841 L30.7460317,9.41269841 C30.5555556,9.41269841 30.4285714,9.41269841 30.3015873,9.47619048 C30.2380952,9.53968254 30.1746032,9.66666667 30.1746032,9.79365079 Z" id="Shape"></path>
                                        <polygon id="Shape" points="27.952381 5.98412698 28.2857143 6.48412698 28.452381 6.48412698"></polygon>
                                        <polygon id="Shape" points="24.4603175 2.49206349 25.5396825 5.0952381 25.5396825 3.57142857"></polygon>
                                        <path d="M13.6031746,4.58730159 L13.7301587,4.58730159 C13.8571429,4.58730159 13.8571429,4.58730159 13.8571429,4.77777778 L13.8571429,6.17460317 L18.4285714,6.17460317 L18.4285714,5.79365079 C18.8095238,5.98412698 19.3809524,6.17460317 20.1428571,6.17460317 L22.047619,6.17460317 L22.4285714,5.15873016 L23.3174603,5.15873016 L23.6984127,6.17460317 L27.3809524,6.17460317 L27.3809524,5.53968254 L26.4920635,4.65079365 L26.4920635,5.34920635 L24.3333333,5.34920635 L24.015873,4.33333333 L21.7936508,4.33333333 L21.4126984,5.34920635 L20.2063492,5.34920635 C19.6984127,5.34920635 19.0634921,5.22222222 18.6825397,4.84126984 C18.3015873,4.46031746 18.1111111,3.95238095 18.1111111,3.12698413 C18.1111111,2.49206349 18.2380952,1.85714286 18.6825397,1.34920635 C19,0.968253968 19.5714286,0.841269841 20.2698413,0.841269841 L21.2857143,0.841269841 L21.2857143,1.79365079 L20.2698413,1.79365079 C19.8888889,1.79365079 19.6984127,1.85714286 19.4444444,2.04761905 C19.2539683,2.23809524 19.1269841,2.61904762 19.1269841,3.06349206 C19.1269841,3.57142857 19.1904762,3.88888889 19.4444444,4.14285714 C19.6349206,4.33333333 19.8888889,4.3968254 20.2063492,4.3968254 L20.6507937,4.3968254 L22.1111111,0.904761905 L22.7460317,0.904761905 L21.8571429,0.0158730159 L20.2063492,0.0158730159 C19.5079365,0.0158730159 18.9365079,0.142857143 18.4285714,0.396825397 L18.4285714,0.0158730159 L15.6349206,0.0158730159 L15.6349206,0.396825397 C15.3174603,0.142857143 14.9365079,0.0158730159 14.4285714,0.0158730159 L4.20634921,0.0158730159 L3.50793651,1.6031746 L2.80952381,0.0158730159 L0.0158730159,0.0158730159 L0.904761905,0.904761905 L2.17460317,0.904761905 L3.25396825,3.25396825 L3.63492063,3.63492063 L4.77777778,0.841269841 L6.55555556,0.841269841 L6.55555556,5.34920635 L5.47619048,5.34920635 L5.47619048,1.85714286 L4.3968254,4.3968254 L6.23809524,6.23809524 L13.5396825,6.23809524 L13.6031746,4.58730159 Z M16.5238095,0.841269841 L17.6031746,0.841269841 L17.6031746,5.34920635 L16.5238095,5.34920635 L16.5238095,0.841269841 Z M10.9365079,1.79365079 L8.46031746,1.79365079 L8.46031746,2.61904762 L10.8730159,2.61904762 L10.8730159,3.50793651 L8.46031746,3.50793651 L8.46031746,4.3968254 L10.9365079,4.3968254 L10.9365079,5.34920635 L7.38095238,5.34920635 L7.38095238,0.841269841 L10.9365079,0.841269841 L10.9365079,1.79365079 Z M12.7142857,5.28571429 L11.6349206,5.28571429 L11.6349206,0.777777778 L14.047619,0.777777778 C14.6190476,0.777777778 15,0.777777778 15.3174603,0.968253968 C15.6349206,1.15873016 15.8253968,1.47619048 15.8253968,1.98412698 C15.8253968,2.68253968 15.3809524,3.06349206 15.0634921,3.19047619 C15.3174603,3.25396825 15.5079365,3.44444444 15.5714286,3.57142857 C15.6984127,3.82539683 15.7619048,4.01587302 15.7619048,4.3968254 L15.7619048,5.28571429 L14.6825397,5.28571429 L14.6825397,4.71428571 C14.6825397,4.46031746 14.6825397,4.07936508 14.4920635,3.82539683 C14.4285714,3.6984127 14.2380952,3.6984127 13.8571429,3.6984127 L12.7142857,3.6984127 L12.7142857,5.28571429 Z" id="Shape"></path>
                                    </g>
                                </g>
                            </g>
                        </g>
                    </g>
                </g>
            </g>
        </g>
    </g>
</svg>