<?xml version="1.0" encoding="UTF-8"?>
<svg width="55px" height="35px" viewBox="0 0 55 35" version="1.1" xmlns="http://www.w3.org/2000/svg" xmlns:xlink="http://www.w3.org/1999/xlink">
    <!-- Generator: Sketch 51.3 (57544) - http://www.bohemiancoding.com/sketch -->
    <title>Group 4</title>
    <desc>Created with Sketch.</desc>
    <defs></defs>
    <g id="Symbols" stroke="none" stroke-width="1" fill="none" fill-rule="evenodd">
        <g id="footer" transform="translate(-1081.000000, -161.000000)" fill-rule="nonzero">
            <g id="Group-22">
                <g id="Group-24" transform="translate(0.000000, 161.000000)">
                    <g id="Group-20">
                        <g id="Group-13" transform="translate(1016.000000, 0.000000)">
                            <g id="Group-4" transform="translate(65.000000, 0.000000)">
                                <rect id="Rectangle-Copy" fill="#F8F8F8" x="0" y="0" width="55" height="35"></rect>
                                <g id="Mastercard-logo" transform="translate(13.000000, 6.000000)">
                                    <g id="Group" transform="translate(15.813067, 21.491094) scale(-1, 1) rotate(-180.000000) translate(-15.813067, -21.491094) translate(1.792318, 19.488129)" fill="#231F20">
                                        <path d="M27.4692233,0.572275485 L27.4692233,0.51333111 L27.5235895,0.51333111 C27.5356073,0.51333111 27.5459082,0.516192488 27.5533478,0.520770692 C27.5602151,0.525348896 27.564221,0.533360752 27.564221,0.543089436 C27.564221,0.552818119 27.5602151,0.5602577 27.5533478,0.564835904 C27.5459082,0.569986383 27.5356073,0.572275485 27.5235895,0.572275485 L27.4692233,0.572275485 Z M27.5241617,0.61347932 C27.5522032,0.61347932 27.5739497,0.60718429 27.5894012,0.594594229 C27.6048526,0.582004169 27.6122922,0.564835904 27.6122922,0.543089436 C27.6122922,0.52477662 27.6065694,0.509897458 27.5939794,0.497879672 C27.5819616,0.486434163 27.5647933,0.478994581 27.5419023,0.476133204 L27.614009,0.393153258 L27.557926,0.393153258 L27.4909698,0.475560928 L27.4692233,0.475560928 L27.4692233,0.393153258 L27.4222967,0.393153258 L27.4222967,0.61347932 L27.5241617,0.61347932 Z M27.5098549,0.317040619 C27.5356073,0.317040619 27.5596428,0.322191098 27.5813893,0.331919782 C27.603708,0.341648465 27.6231654,0.354810801 27.6397614,0.37140679 C27.6563574,0.388002779 27.6695197,0.407460146 27.6792484,0.430351165 C27.6884048,0.452669909 27.6935553,0.476705479 27.6935553,0.502457876 C27.6935553,0.528210273 27.6884048,0.552245843 27.6792484,0.574564587 C27.6695197,0.596883331 27.6563574,0.616912973 27.6397614,0.633508962 C27.6231654,0.650104951 27.603708,0.663267288 27.5813893,0.672995971 C27.5596428,0.682152379 27.5356073,0.686730583 27.5098549,0.686730583 C27.4841025,0.686730583 27.4594946,0.682152379 27.4371759,0.672995971 C27.4142849,0.663267288 27.3942552,0.650104951 27.3776592,0.633508962 C27.3610632,0.616912973 27.3479009,0.596883331 27.3387445,0.574564587 C27.3290158,0.552245843 27.3244376,0.528210273 27.3244376,0.502457876 C27.3244376,0.476705479 27.3290158,0.452669909 27.3387445,0.430351165 C27.3479009,0.407460146 27.3610632,0.388002779 27.3776592,0.37140679 C27.3942552,0.354810801 27.4142849,0.341648465 27.4371759,0.331919782 C27.4594946,0.322191098 27.4841025,0.317040619 27.5098549,0.317040619 Z M27.5098549,0.739952203 C27.5436191,0.739952203 27.574522,0.733657172 27.6042803,0.721067112 C27.6334664,0.709049326 27.6586465,0.691881062 27.6809652,0.670134593 C27.7027117,0.6489604 27.71988,0.623780279 27.73247,0.594594229 C27.7450601,0.565980455 27.7513551,0.535077579 27.7513551,0.502457876 C27.7513551,0.469838174 27.7450601,0.438935297 27.73247,0.410321523 C27.71988,0.381707749 27.7027117,0.356527627 27.6809652,0.334781159 C27.6586465,0.313606966 27.6334664,0.296438701 27.6042803,0.283848641 C27.574522,0.27125858 27.5436191,0.26496355 27.5098549,0.26496355 C27.4755183,0.26496355 27.4440432,0.27125858 27.4142849,0.283848641 C27.3845265,0.296438701 27.3587741,0.313606966 27.3370277,0.334781159 C27.3152812,0.356527627 27.2981129,0.381707749 27.2855229,0.410321523 C27.2729328,0.438935297 27.2666378,0.469838174 27.2666378,0.502457876 C27.2666378,0.535077579 27.2729328,0.565980455 27.2855229,0.594594229 C27.2981129,0.623780279 27.3152812,0.6489604 27.3370277,0.670134593 C27.3587741,0.691881062 27.3845265,0.709049326 27.4142849,0.721067112 C27.4440432,0.733657172 27.4755183,0.739952203 27.5098549,0.739952203 Z M5.21342967,1.58863675 C5.21342967,2.00868695 5.48869418,2.35376907 5.93850271,2.35376907 C6.3682816,2.35376907 6.65842527,2.02356612 6.65842527,1.58863675 C6.65842527,1.15370738 6.3682816,0.823504424 5.93850271,0.823504424 C5.48869418,0.823504424 5.21342967,1.16858654 5.21342967,1.58863675 Z M7.14829309,1.58863675 L7.14829309,2.78354796 L6.62866695,2.78354796 L6.62866695,2.49340429 C6.46385161,2.70857987 6.21376722,2.84363689 5.87383558,2.84363689 C5.20370099,2.84363689 4.67835209,2.31828799 4.67835209,1.58863675 C4.67835209,0.858413228 5.20370099,0.333636608 5.87383558,0.333636608 C6.21376722,0.333636608 6.46385161,0.468693623 6.62866695,0.683869205 L6.62866695,0.393725534 L7.14829309,0.393725534 L7.14829309,1.58863675 Z M24.7079941,1.58863675 C24.7079941,2.00868695 24.9832586,2.35376907 25.4330671,2.35376907 C25.8634183,2.35376907 26.1529897,2.02356612 26.1529897,1.58863675 C26.1529897,1.15370738 25.8634183,0.823504424 25.4330671,0.823504424 C24.9832586,0.823504424 24.7079941,1.16858654 24.7079941,1.58863675 Z M26.6434298,1.58863675 L26.6434298,3.74325395 L26.1232314,3.74325395 L26.1232314,2.49340429 C25.958416,2.70857987 25.7083316,2.84363689 25.3684,2.84363689 C24.6982654,2.84363689 24.1729165,2.31828799 24.1729165,1.58863675 C24.1729165,0.858413228 24.6982654,0.333636608 25.3684,0.333636608 C25.7083316,0.333636608 25.958416,0.468693623 26.1232314,0.683869205 L26.1232314,0.393725534 L26.6434298,0.393725534 L26.6434298,1.58863675 Z M13.5984101,2.37837692 C13.9331912,2.37837692 14.1483668,2.16835181 14.2033053,1.79866185 L12.9631843,1.79866185 C13.018695,2.14374397 13.2281478,2.37837692 13.5984101,2.37837692 Z M13.608711,2.84363689 C12.9082458,2.84363689 12.418378,2.33373943 12.418378,1.58863675 C12.418378,0.828654903 12.9282755,0.333636608 13.6436198,0.333636608 C14.0035811,0.333636608 14.3332118,0.423483859 14.6233555,0.668417767 L14.3686929,1.05355917 C14.1683965,0.893894308 13.9131616,0.803474782 13.6733782,0.803474782 C13.338597,0.803474782 13.0335742,0.958561438 12.9586061,1.3889126 L14.7332324,1.3889126 C14.7383829,1.45357973 14.7435333,1.51881914 14.7435333,1.58863675 C14.7383829,2.33373943 14.2782734,2.84363689 13.608711,2.84363689 Z M19.8831395,1.58863675 C19.8831395,2.00868695 20.158404,2.35376907 20.6082125,2.35376907 C21.0379914,2.35376907 21.3281351,2.02356612 21.3281351,1.58863675 C21.3281351,1.15370738 21.0379914,0.823504424 20.6082125,0.823504424 C20.158404,0.823504424 19.8831395,1.16858654 19.8831395,1.58863675 Z M21.8180029,1.58863675 L21.8180029,2.78354796 L21.2983767,2.78354796 L21.2983767,2.49340429 C21.1329891,2.70857987 20.883477,2.84363689 20.5435454,2.84363689 C19.8734108,2.84363689 19.3480619,2.31828799 19.3480619,1.58863675 C19.3480619,0.858413228 19.8734108,0.333636608 20.5435454,0.333636608 C20.883477,0.333636608 21.1329891,0.468693623 21.2983767,0.683869205 L21.2983767,0.393725534 L21.8180029,0.393725534 L21.8180029,1.58863675 Z M16.9485108,1.58863675 C16.9485108,0.863563708 17.4532578,0.333636608 18.2235406,0.333636608 C18.5835018,0.333636608 18.8232853,0.413755176 19.0830983,0.6186298 L18.8335862,1.03868001 C18.6384403,0.898472512 18.4335657,0.823504424 18.2080891,0.823504424 C17.7931894,0.828654903 17.4881666,1.12852726 17.4881666,1.58863675 C17.4881666,2.04874624 17.7931894,2.34861859 18.2080891,2.35376907 C18.4335657,2.35376907 18.6384403,2.27880098 18.8335862,2.13859349 L19.0830983,2.5586437 C18.8232853,2.76351832 18.5835018,2.84363689 18.2235406,2.84363689 C17.4532578,2.84363689 16.9485108,2.31370979 16.9485108,1.58863675 Z M23.6481399,2.84363689 C23.3482675,2.84363689 23.1531216,2.70342939 23.0180646,2.49340429 L23.0180646,2.78354796 L22.5030166,2.78354796 L22.5030166,0.393725534 L23.0232151,0.393725534 L23.0232151,1.73342245 C23.0232151,2.12886481 23.1931809,2.34861859 23.5331125,2.34861859 C23.6384112,2.34861859 23.7482881,2.33373943 23.858165,2.28852967 L24.0184021,2.77839748 C23.9033748,2.82360725 23.7534386,2.84363689 23.6481399,2.84363689 Z M9.71838229,2.5935525 C9.46829791,2.75836784 9.12378806,2.84363689 8.74379714,2.84363689 C8.13832968,2.84363689 7.74861007,2.55349322 7.74861007,2.07850456 C7.74861007,1.68878496 8.03875374,1.44842925 8.57325905,1.37346117 L8.81876523,1.33855236 C9.10375842,1.29849308 9.23824316,1.22352499 9.23824316,1.08846797 C9.23824316,0.903622992 9.0482477,0.798324302 8.6934369,0.798324302 C8.33347562,0.798324302 8.07366255,0.913351675 7.89854625,1.04840869 L7.65361234,0.643809921 C7.93860553,0.433784818 8.29856681,0.333636608 8.68828642,0.333636608 C9.37845066,0.333636608 9.77847122,0.658689084 9.77847122,1.11364809 C9.77847122,1.5336983 9.4637197,1.75345209 8.94352129,1.82842018 L8.69858738,1.86390126 C8.47368311,1.89365958 8.29341633,1.93829707 8.29341633,2.09853421 C8.29341633,2.2736505 8.46338215,2.37837692 8.74837535,2.37837692 C9.05339818,2.37837692 9.34869233,2.26334954 9.49347803,2.17350229 L9.71838229,2.5935525 Z M16.4231619,2.84363689 C16.1232895,2.84363689 15.9281436,2.70342939 15.7936588,2.49340429 L15.7936588,2.78354796 L15.2786109,2.78354796 L15.2786109,0.393725534 L15.7982371,0.393725534 L15.7982371,1.73342245 C15.7982371,2.12886481 15.9682029,2.34861859 16.3081345,2.34861859 C16.4134332,2.34861859 16.5233101,2.33373943 16.633187,2.28852967 L16.7934241,2.77839748 C16.6783967,2.82360725 16.5284606,2.84363689 16.4231619,2.84363689 Z M11.9885991,2.78354796 L11.13877,2.78354796 L11.13877,3.508621 L10.6134212,3.508621 L10.6134212,2.78354796 L10.1287038,2.78354796 L10.1287038,2.30855931 L10.6134212,2.30855931 L10.6134212,1.21837451 C10.6134212,0.663839563 10.8285967,0.333636608 11.4432206,0.333636608 C11.6686971,0.333636608 11.9285102,0.403454217 12.0933256,0.51848159 L11.9433894,0.963711917 C11.7883027,0.873864666 11.6183369,0.828654903 11.4832799,0.828654903 C11.2234668,0.828654903 11.13877,0.988892039 11.13877,1.22867547 L11.13877,2.30855931 L11.9885991,2.30855931 L11.9885991,2.78354796 Z M4.21881488,0.393725534 L4.21881488,1.89365958 C4.21881488,2.45849549 3.8588536,2.83848641 3.27856626,2.84363689 C2.97354342,2.84878737 2.65879191,2.75378964 2.43846584,2.4184362 C2.2736505,2.68339975 2.01383743,2.84363689 1.64872567,2.84363689 C1.39349081,2.84363689 1.1439787,2.7686688 0.948832755,2.48882609 L0.948832755,2.78354796 L0.428634339,2.78354796 L0.428634339,0.393725534 L0.953410959,0.393725534 L0.953410959,1.71854328 C0.953410959,2.13344301 1.1834657,2.35376907 1.53884878,2.35376907 C1.8839309,2.35376907 2.05847492,2.12886481 2.05847492,1.72369376 L2.05847492,0.393725534 L2.58382382,0.393725534 L2.58382382,1.71854328 C2.58382382,2.13344301 2.82360725,2.35376907 3.16868936,2.35376907 C3.52350016,2.35376907 3.69346598,2.12886481 3.69346598,1.72369376 L3.69346598,0.393725534 L4.21881488,0.393725534 Z" id="Shape"></path>
                                    </g>
                                    <g id="Group" transform="translate(29.009740, 14.866432) scale(-1, 1) rotate(-180.000000) translate(-29.009740, -14.866432) translate(28.437465, 14.580295)" fill="#F79410">
                                        <path d="M1.14455097,0 L1.14455097,0.349088046 L1.05355917,0.349088046 L0.948260479,0.109304618 L0.843534066,0.349088046 L0.751969988,0.349088046 L0.751969988,0 L0.816637118,0 L0.816637118,0.263246723 L0.915068501,0.0360533556 L0.982024733,0.0360533556 L1.08045612,0.263818999 L1.08045612,0 L1.14455097,0 Z M0.567125006,0 L0.567125006,0.289571396 L0.683869205,0.289571396 L0.683869205,0.348515771 L0.386285953,0.348515771 L0.386285953,0.289571396 L0.503030152,0.289571396 L0.503030152,0 L0.567125006,0 Z" id="Shape"></path>
                                    </g>
                                    <polygon id="Shape" fill="#FF5F00" points="19.2352748 16.6542211 11.3598484 16.6542211 11.3598484 2.50070381 19.2352748 2.50070381"></polygon>
                                    <g id="Group" transform="translate(8.144576, 9.576318) scale(-1, 1) rotate(-180.000000) translate(-8.144576, -9.576318) translate(0.418857, 0.419910)" fill="#EB001B">
                                        <path d="M11.4455097,9.15640777 C11.4455097,12.0275139 12.7897848,14.585013 14.8831685,16.2331664 C13.3523316,17.4383786 11.4203296,18.1577289 9.32065083,18.1577289 C4.34986596,18.1577289 0.320474272,14.1277649 0.320474272,9.15640777 C0.320474272,4.18505062 4.34986596,0.155086657 9.32065083,0.155086657 C11.4203296,0.155086657 13.3523316,0.874436942 14.8831685,2.07964911 C12.7897848,3.72780251 11.4455097,6.28530166 11.4455097,9.15640777" id="Shape"></path>
                                    </g>
                                    <g id="Group" transform="translate(22.417126, 9.576318) scale(-1, 1) rotate(-180.000000) translate(-22.417126, -9.576318) translate(14.977545, 0.419910)" fill="#F79E1B">
                                        <path d="M14.8791626,9.15640777 C14.8791626,4.18505062 10.8497709,0.155086657 5.87898606,0.155086657 C3.77930731,0.155086657 1.84730527,0.874436942 0.315896068,2.07964911 C2.40985207,3.72780251 3.75412718,6.28530166 3.75412718,9.15640777 C3.75412718,12.0275139 2.40985207,14.585013 0.315896068,16.2331664 C1.84730527,17.4383786 3.77930731,18.1577289 5.87898606,18.1577289 C10.8497709,18.1577289 14.8791626,14.1277649 14.8791626,9.15640777" id="Shape"></path>
                                    </g>
                                </g>
                            </g>
                        </g>
                    </g>
                </g>
            </g>
        </g>
    </g>
</svg>