<?xml version="1.0" encoding="UTF-8"?>
<svg width="55px" height="35px" viewBox="0 0 55 35" version="1.1" xmlns="http://www.w3.org/2000/svg" xmlns:xlink="http://www.w3.org/1999/xlink">
    <!-- Generator: Sketch 51.3 (57544) - http://www.bohemiancoding.com/sketch -->
    <title>Group 3</title>
    <desc>Created with Sketch.</desc>
    <defs></defs>
    <g id="Symbols" stroke="none" stroke-width="1" fill="none" fill-rule="evenodd">
        <g id="footer" transform="translate(-1016.000000, -161.000000)" fill-rule="nonzero">
            <g id="Group-22">
                <g id="Group-24" transform="translate(0.000000, 161.000000)">
                    <g id="Group-20">
                        <g id="Group-13" transform="translate(1016.000000, 0.000000)">
                            <g id="Group-3">
                                <rect id="Rectangle" fill="#F8F8F8" x="0" y="0" width="55" height="35"></rect>
                                <g id="visa" transform="translate(8.000000, 11.000000)">
                                    <path d="M16.3368493,0.0315068493 L14.3309589,12.5139726 L17.5371233,12.5139726 L19.5417808,0.0315068493 C19.5417808,0.0315068493 16.3368493,0.0315068493 16.3368493,0.0315068493 Z M26.0078082,5.11616438 C24.8873973,4.56287671 24.2005479,4.18945205 24.2005479,3.62356164 C24.2142466,3.1090411 24.7813699,2.58191781 26.0478082,2.58191781 C27.0894521,2.55575342 27.8550685,2.80054795 28.4358904,3.04410959 L28.7268493,3.1739726 L29.1627397,0.562328767 C28.5294521,0.317534247 27.5253425,0.0478082192 26.2850685,0.0478082192 C23.1189041,0.0478082192 20.8894521,1.6939726 20.8756164,4.04835616 C20.8494521,5.78575342 22.4717808,6.74986301 23.6858904,7.32821918 C24.9261644,7.92150685 25.3483562,8.30616438 25.3483562,8.83328767 C25.3346575,9.64260274 24.3454795,10.0160274 23.4224658,10.0160274 C22.1435616,10.0160274 21.4565753,9.82369863 20.4136986,9.37273973 L19.9915068,9.18041096 L19.5431507,11.8945205 C20.2963014,12.2293151 21.6813699,12.5239726 23.1190411,12.5390411 C26.4838356,12.5390411 28.6732877,10.9178082 28.7008219,8.40863014 C28.7117808,7.03219178 27.8563014,5.97794521 26.0078082,5.11616438 Z M37.3823288,0.0701369863 L34.9017808,0.0701369863 C34.1373973,0.0701369863 33.5565753,0.29 33.2256164,1.07438356 L28.4631507,12.5139726 L31.8279452,12.5139726 L32.7546575,10.0372603 L36.5191781,10.0372603 L37,12.5239726 L39.9676712,12.5239726 L37.3823288,0.0701369863 Z M33.6878082,7.53781557 C33.7527397,7.54410959 34.9793151,3.49479452 34.9793151,3.49479452 L35.9560274,7.53781557 C35.9560274,7.53781557 34.3210959,7.53780822 33.6878082,7.53781557 Z M11.6519178,0.0315068493 L8.51068493,8.51219178 L8.16849315,6.83972603 C7.58767123,4.91 5.76671233,2.8130137 3.73452055,1.77136986 L6.6109589,12.5015068 L10.0032877,12.5015068 L15.0442466,0.0328767123 L11.6519178,0.0328767123 L11.6519178,0.0315068493 Z" id="Shape" fill="#2370BC"></path>
                                    <path d="M7.11178082,1.64136986 C6.8669863,0.689589041 6.08630137,0.0476712329 5.0260274,0.0339726027 L0.0512328767,0.0339726027 L0,0.264931507 C3.88068493,1.22164384 7.13794521,4.16547945 8.19465753,6.93452055 L7.11178082,1.64136986 Z" id="Shape" fill="#EFB75E"></path>
                                </g>
                            </g>
                        </g>
                    </g>
                </g>
            </g>
        </g>
    </g>
</svg>