<?xml version="1.0" encoding="UTF-8"?>
<svg width="129px" height="42px" viewBox="0 0 129 42" version="1.1" xmlns="http://www.w3.org/2000/svg" xmlns:xlink="http://www.w3.org/1999/xlink">
    <!-- Generator: Sketch 51.3 (57544) - http://www.bohemiancoding.com/sketch -->
    <title>google</title>
    <desc>Created with Sketch.</desc>
    <defs>
        <linearGradient x1="91.4895098%" y1="4.9604069%" x2="-38.3173161%" y2="71.909245%" id="linearGradient-1">
            <stop stop-color="#00A0FF" offset="0%"></stop>
            <stop stop-color="#00A1FF" offset="0.66%"></stop>
            <stop stop-color="#00BEFF" offset="26.01%"></stop>
            <stop stop-color="#00D2FF" offset="51.22%"></stop>
            <stop stop-color="#00DFFF" offset="76.04%"></stop>
            <stop stop-color="#00E3FF" offset="100%"></stop>
        </linearGradient>
        <linearGradient x1="107.585647%" y1="50.0163647%" x2="-130.492257%" y2="50.0163647%" id="linearGradient-2">
            <stop stop-color="#FFE000" offset="0%"></stop>
            <stop stop-color="#FFBD00" offset="40.87%"></stop>
            <stop stop-color="#FFA500" offset="77.54%"></stop>
            <stop stop-color="#FF9C00" offset="100%"></stop>
        </linearGradient>
        <linearGradient x1="86.237735%" y1="117.851014%" x2="-50.1313759%" y2="294.785269%" id="linearGradient-3">
            <stop stop-color="#FF3A44" offset="0%"></stop>
            <stop stop-color="#C31162" offset="100%"></stop>
        </linearGradient>
        <linearGradient x1="-18.8012883%" y1="-154.171052%" x2="42.0936259%" y2="-75.1365546%" id="linearGradient-4">
            <stop stop-color="#32A071" offset="0%"></stop>
            <stop stop-color="#2DA771" offset="6.85%"></stop>
            <stop stop-color="#15CF74" offset="47.62%"></stop>
            <stop stop-color="#06E775" offset="80.09%"></stop>
            <stop stop-color="#00F076" offset="100%"></stop>
        </linearGradient>
    </defs>
    <g id="Page-1" stroke="none" stroke-width="1" fill="none" fill-rule="evenodd">
        <g id="google" transform="translate(64.500000, 21.000000) scale(-1, 1) rotate(-180.000000) translate(-64.500000, -21.000000) translate(1.000000, 1.000000)" fill-rule="nonzero">
            <rect id="Rectangle-3" stroke-opacity="0.2" stroke="#424242" fill="#000000" x="-0.5" y="-0.5" width="127.666667" height="41" rx="3"></rect>
            <g id="Group-25" transform="translate(12.000000, 7.666667)">
                <g id="Group-35" transform="translate(28.303030, 18.098300)" fill="#FFFFFF">
                    <path d="M5.81362296,3.43297594 C5.81362296,4.16668711 5.59136302,4.75431507 5.15351096,5.1925647 C4.65009221,5.71209372 3.9944254,5.97350578 3.19095574,5.97350578 C2.42304767,5.97350578 1.76738087,5.70770024 1.22951183,5.18377774 C0.690531491,4.65216666 0.421596972,3.99973487 0.421596972,3.21879379 C0.421596972,2.43785271 0.690531491,1.78542093 1.22951183,1.25820332 C1.76738087,0.729887346 2.42304767,0.464081804 3.19095574,0.464081804 C3.57324283,0.464081804 3.93774912,0.542066075 4.28558592,0.687050916 C4.63231141,0.833134127 4.91458153,1.03084073 5.11906067,1.27467887 L4.6545374,1.73819102 C4.29781021,1.32190878 3.81217226,1.11651359 3.19095574,1.11651359 C2.63086071,1.11651359 2.14522276,1.30982671 1.73293058,1.69974807 C1.3250836,2.09076779 1.12060446,2.59711637 1.12060446,3.21879379 C1.12060446,3.84047122 1.3250836,4.35121327 1.73293058,4.742233 C2.14522276,5.12776087 2.63086071,5.32546747 3.19095574,5.32546747 C3.78550107,5.32546747 4.28558592,5.12776087 4.6800973,4.73783952 C4.94014142,4.47972256 5.08794428,4.12385068 5.12683976,3.6691255 L3.19095574,3.6691255 L3.19095574,3.03426763 L5.77361617,3.03426763 C5.80473256,3.17156388 5.81362296,3.30446665 5.81362296,3.43297594 Z" id="path20" transform="translate(3.117610, 3.218794) scale(-1, 1) rotate(-180.000000) translate(-3.117610, -3.218794) "></path>
                    <polygon id="path24" transform="translate(8.354610, 3.218794) scale(-1, 1) rotate(-180.000000) translate(-8.354610, -3.218794) " points="9.91098483 1.23184244 7.48501766 1.23184244 7.48501766 2.90136486 9.6720554 2.90136486 9.6720554 3.53622272 7.48501766 3.53622272 7.48501766 5.20574514 9.91098483 5.20574514 9.91098483 5.85268508 6.79823446 5.85268508 6.79823446 0.584902505 9.91098483 0.584902505"></polygon>
                    <polygon id="path28" transform="translate(12.459751, 3.218794) scale(-1, 1) rotate(-180.000000) translate(-12.459751, -3.218794) " points="12.8025866 5.85268508 12.1158034 5.85268508 12.1158034 1.23184244 10.6277731 1.23184244 10.6277731 0.584902505 14.2917281 0.584902505 14.2917281 1.23184244 12.8025866 1.23184244 12.8025866 5.85268508"></polygon>
                    <polygon id="path32" transform="translate(17.498939, 3.218794) scale(-1, 1) rotate(-180.000000) translate(-17.498939, -3.218794) " points="16.9432891 5.85268508 16.9432891 0.584902505 17.628961 0.584902505 17.628961 5.85268508"></polygon>
                    <polygon id="path36" transform="translate(20.327752, 3.218794) scale(-1, 1) rotate(-180.000000) translate(-20.327752, -3.218794) " points="20.6683656 5.85268508 19.9871389 5.85268508 19.9871389 1.23184244 18.4935522 1.23184244 18.4935522 0.584902505 22.1619524 0.584902505 22.1619524 1.23184244 20.6683656 1.23184244"></polygon>
                    <path d="M29.0986849,5.17499078 C28.5730401,5.70770024 27.9218185,5.97350578 27.1450201,5.97350578 C26.3637764,5.97350578 25.7125548,5.70770024 25.1869101,5.17499078 C24.6623766,4.6433797 24.4012212,3.99094791 24.4012212,3.21879379 C24.4012212,2.44663967 24.6623766,1.79420789 25.1869101,1.2625968 C25.7125548,0.729887346 26.3637764,0.464081804 27.1450201,0.464081804 C27.9173733,0.464081804 28.5685949,0.729887346 29.0942397,1.26699028 C29.6232183,1.80299485 29.8843738,2.45103315 29.8843738,3.21879379 C29.8843738,3.99094791 29.6232183,4.6433797 29.0986849,5.17499078 Z M25.694774,4.73344604 C26.0903967,5.12776087 26.5715894,5.32546747 27.1450201,5.32546747 C27.7140055,5.32546747 28.1996435,5.12776087 28.5908209,4.73344604 C28.9853323,4.3391312 29.1853663,3.83278263 29.1853663,3.21879379 C29.1853663,2.60480496 28.9853323,2.09845638 28.5908209,1.70414155 C28.1996435,1.30982671 27.7140055,1.11212011 27.1450201,1.11212011 C26.5715894,1.11212011 26.0903967,1.30982671 25.694774,1.70414155 C25.3002626,2.09845638 25.1002287,2.60480496 25.1002287,3.21879379 C25.1002287,3.83278263 25.3002626,4.3391312 25.694774,4.73344604 Z" id="path40" transform="translate(27.142797, 3.218794) scale(-1, 1) rotate(-180.000000) translate(-27.142797, -3.218794) "></path>
                    <polygon id="path44" transform="translate(32.903219, 3.218794) scale(-1, 1) rotate(-180.000000) translate(-32.903219, -3.218794) " points="30.8478706 5.85268508 30.8478706 0.584902505 31.6813453 0.584902505 34.2728961 4.68182265 34.3029012 4.68182265 34.2728961 3.6691255 34.2728961 0.584902505 34.958568 0.584902505 34.958568 5.85268508 34.242891 5.85268508 31.5290973 1.55366485 31.4990922 1.55366485 31.5290973 2.57075549 31.5290973 5.85268508 30.8478706 5.85268508"></polygon>
                </g>
                <path d="M52.5353339,10.990219 C50.4472019,10.990219 48.7413569,9.41954991 48.7413569,7.25246587 C48.7413569,5.10295576 50.4472019,3.5158111 52.5353339,3.5158111 C54.6279112,3.5158111 56.3337562,5.10295576 56.3337562,7.25246587 C56.3337562,9.41954991 54.6279112,10.990219 52.5353339,10.990219 Z M50.4038612,7.25246587 C50.4038612,8.60016588 51.389584,9.51840321 52.5353339,9.51840321 C53.6810839,9.51840321 54.6712519,8.60016588 54.6712519,7.25246587 C54.6712519,5.92233979 53.6810839,4.98762691 52.5353339,4.98762691 C51.389584,4.98762691 50.4038612,5.92233979 50.4038612,7.25246587 Z M44.2572627,10.990219 C42.1646855,10.990219 40.4632857,9.41954991 40.4632857,7.25246587 C40.4632857,5.10295576 42.1646855,3.5158111 44.2572627,3.5158111 C46.3487287,3.5158111 48.0512398,5.10295576 48.0512398,7.25246587 C48.0512398,9.41954991 46.3487287,10.990219 44.2572627,10.990219 Z M44.2572627,4.98762691 C43.1104015,4.98762691 42.1213448,5.92233979 42.1213448,7.25246587 C42.1213448,8.60016588 43.1104015,9.51840321 44.2572627,9.51840321 C45.4030127,9.51840321 46.3887355,8.60016588 46.3887355,7.25246587 C46.3887355,5.92233979 45.4030127,4.98762691 44.2572627,4.98762691 Z M34.4067025,9.8446191 L34.4067025,8.25637606 L38.2440202,8.25637606 C38.131779,7.36889309 37.831728,6.71646131 37.37165,6.26173612 C36.811555,5.71255112 35.9391847,5.10295576 34.4067025,5.10295576 C32.0451907,5.10295576 30.195988,6.98666033 30.195988,9.3206966 C30.195988,11.6547329 32.0451907,13.5384374 34.4067025,13.5384374 C35.6835858,13.5384374 36.6126323,13.0452693 37.2983042,12.406018 L38.4307186,13.525257 C37.471667,14.4303139 36.1958949,15.1255821 34.4067025,15.1255821 C31.1683752,15.1255821 28.4468024,12.5213468 28.4468024,9.3206966 C28.4468024,6.12004639 31.1683752,3.5158111 34.4067025,3.5158111 C36.1569995,3.5158111 37.471667,4.08257002 38.5051756,5.14579219 C39.5642442,6.19253881 39.8943002,7.66435463 39.8943002,8.85279098 C39.8943002,9.2218433 39.8631838,9.56123964 39.8076189,9.8446191 L34.4067025,9.8446191 Z M71.448543,10.990219 C69.5037686,10.990219 67.884605,9.47556678 67.884605,7.25246587 C67.884605,5.15897263 69.4870991,3.5158111 71.6352413,3.5158111 C73.3722027,3.5158111 74.374595,4.56255772 74.7868872,5.17215307 L73.4977796,6.02119309 C73.0677066,5.39951566 72.4820517,4.98762691 71.6352413,4.98762691 C70.7939875,4.98762691 70.1905518,5.3687613 69.8038195,6.12004639 L74.8613443,8.18827712 L74.6868702,8.61334632 C74.374595,9.4492059 73.4110982,10.990219 71.448543,10.990219 Z M71.5052193,9.5480592 C72.1653313,9.5480592 72.7254263,9.2218433 72.9121247,8.75503605 L69.5304398,7.36889309 C69.4870991,8.80995455 70.6628541,9.5480592 71.5052193,9.5480592 Z M65.4197423,3.74317369 L67.0822466,3.74317369 L67.0822466,14.7268738 L65.4197423,14.7268738 L65.4197423,3.74317369 Z M62.6414931,10.1576546 C62.2680964,10.5948058 61.5557533,10.990219 60.653378,10.990219 C58.7597234,10.990219 57.0283185,9.34705748 57.0283185,7.2403838 C57.0283185,5.14579219 58.7597234,3.5158111 60.653378,3.5158111 C61.5557533,3.5158111 62.2680964,3.91451941 62.6414931,4.36485111 L62.6970581,4.36485111 L62.6970581,3.82884655 C62.6970581,2.39986716 61.9247048,1.63210653 60.6789379,1.63210653 C59.66321,1.63210653 59.0331031,2.35703073 58.773059,2.96662609 L57.3272581,2.37021117 C57.7439955,1.37948142 58.8475161,0.160290712 60.6789379,0.160290712 C62.6281575,0.160290712 64.272881,1.29380856 64.272881,4.05181566 L64.272881,10.7628564 L62.6970581,10.7628564 L62.6970581,10.1576546 L62.6414931,10.1576546 Z M58.6908228,7.2403838 C58.6908228,8.55732945 59.6498744,9.51840321 60.7956244,9.51840321 C61.9247048,9.51840321 62.8148559,8.55732945 62.8148559,7.2403838 C62.8148559,5.93552023 61.9247048,4.98762691 60.7956244,4.98762691 C59.6498744,4.98762691 58.6908228,5.93552023 58.6908228,7.2403838 Z M78.4941829,14.7268738 L78.4941829,3.74317369 L80.152242,3.74317369 L80.152242,7.90489766 L82.4704131,7.90489766 C84.3118366,7.90489766 86.1176986,9.2218433 86.1176986,11.3164349 C86.1176986,13.4099282 84.3073914,14.7268738 82.4704131,14.7268738 L78.4941829,14.7268738 Z M82.5137538,9.43273035 L80.152242,9.43273035 L80.152242,13.1990411 L82.5137538,13.1990411 C83.7517416,13.1990411 84.4585282,12.1830489 84.4585282,11.3164349 C84.4585282,10.4662965 83.7517416,9.43273035 82.5137538,9.43273035 Z M92.7632706,11.0110881 C91.5652896,11.0110881 90.3195226,10.4882639 89.8072135,9.32948356 L91.2785743,8.71988821 C91.5952947,9.32948356 92.1776157,9.52719017 92.7932757,9.52719017 C93.6534216,9.52719017 94.5257919,9.01644811 94.5391275,8.11468633 L94.5391275,7.99935748 C94.2390766,8.1707032 93.5967454,8.42442668 92.8066113,8.42442668 C91.221898,8.42442668 89.6071796,7.56220622 89.6071796,5.95309415 C89.6071796,4.48127834 90.9051776,3.53338502 92.364314,3.53338502 C93.4800589,3.53338502 94.0957189,4.03094663 94.4824512,4.60978763 L94.5391275,4.60978763 L94.5391275,3.76074761 L96.1405103,3.76074761 L96.1405103,7.97409497 C96.1405103,9.921505 94.6691495,11.0110881 92.7632706,11.0110881 Z M91.2652387,5.92233979 C91.2652387,6.77247818 92.2076208,7.09869407 93.0233147,7.09869407 C93.7534386,7.09869407 94.0957189,6.93943042 94.5391275,6.72964175 C94.4091054,5.71255112 93.5233996,4.99202039 92.5632367,4.99202039 C92.0209224,4.99202039 91.2652387,5.25782593 91.2652387,5.92233979 Z M100.068955,6.00911102 L100.012278,6.00911102 L98.041944,10.770545 L96.2538629,10.770545 L99.2143652,4.11661949 L97.5251897,0.414014184 L99.2577059,0.414014184 L103.819591,10.770545 L101.974834,10.770545 L100.068955,6.00911102 Z M87.0289643,3.74317369 L88.6914686,3.74317369 L88.6914686,14.7268738 L87.0289643,14.7268738 L87.0289643,3.74317369 Z" id="path46" fill="#FFFFFF"></path>
                <g id="Group-36" transform="translate(0.034738, 0.359941)">
                    <g id="g48" transform="translate(0.704972, 1.088123)" fill="url(#linearGradient-1)">
                        <path d="M0.498031952,22.0317208 C0.23687653,21.7615217 0.0857397751,21.340846 0.0857397751,20.7960545 L0.0857397751,1.36369226 C0.0857397751,0.818900738 0.23687653,0.398225024 0.498031952,0.128026001 L0.562487332,0.0687140208 L11.5799122,10.9535608 L11.5799122,11.2105794 L0.562487332,22.0954262 L0.498031952,22.0317208 Z" id="path64"></path>
                    </g>
                    <g id="g66" transform="translate(11.929268, 7.776713)" fill="url(#linearGradient-2)">
                        <path d="M4.0240161,0.634857866 L0.355615894,4.26497075 L0.355615894,4.52198934 L4.02846129,8.15210222 L4.11069747,8.10487231 L8.46032437,5.6588023 C9.7016461,4.96463245 9.7016461,3.82232764 8.46032437,3.12376431 L4.11069747,0.682087777 L4.0240161,0.634857866 Z" id="path78"></path>
                    </g>
                    <g id="g80" transform="translate(0.816271, 0.088123)" fill="url(#linearGradient-3)">
                        <path d="M15.2236941,8.37067785 L11.4686126,12.0820701 L0.386732284,1.128026 C0.799024461,0.699661697 1.47136076,0.648038307 2.23593493,1.07640261 L15.2236941,8.37067785" id="path88"></path>
                    </g>
                    <g id="g90" transform="translate(0.816271, 12.170193)" fill="url(#linearGradient-4)">
                        <path d="M15.2236941,3.71139227 L2.23593493,11.0056675 C1.47136076,11.4296383 0.799024461,11.3780149 0.386732284,10.9496506 L11.4686126,0 L15.2236941,3.71139227 Z" id="path104"></path>
                    </g>
                </g>
            </g>
        </g>
    </g>
</svg>