<?xml version="1.0" encoding="UTF-8"?>
<svg width="40px" height="40px" viewBox="0 0 40 40" version="1.1" xmlns="http://www.w3.org/2000/svg" xmlns:xlink="http://www.w3.org/1999/xlink">
    <!-- Generator: Sketch 51.3 (57544) - http://www.bohemiancoding.com/sketch -->
    <title>Group 45</title>
    <desc>Created with Sketch.</desc>
    <defs>
        <radialGradient cx="50%" cy="0%" fx="50%" fy="0%" r="100%" id="radialGradient-1">
            <stop stop-color="#F8172F" offset="0%"></stop>
            <stop stop-color="#DE1228" offset="100%"></stop>
        </radialGradient>
        <rect id="path-2" x="0" y="0" width="40" height="40" rx="7"></rect>
    </defs>
    <g id="Page-1" stroke="none" stroke-width="1" fill="none" fill-rule="evenodd">
        <g id="Group-45">
            <mask id="mask-3" fill="white">
                <use xlink:href="#path-2"></use>
            </mask>
            <use id="Mask" fill="url(#radialGradient-1)" fill-rule="nonzero" xlink:href="#path-2"></use>
            <g id="Group-142" mask="url(#mask-3)" fill="#F2F2F2">
                <g transform="translate(6.000000, 5.000000)">
                    <path d="M24.5121758,13.5910357 C23.9784788,13.5910357 23.5453273,13.1634708 23.5453273,12.6324968 C23.5453273,12.1015227 23.9784788,11.6705812 24.5121758,11.6705812 C25.0458727,11.6705812 25.4756303,12.1015227 25.4756303,12.6324968 C25.4756303,13.1634708 25.0458727,13.5910357 24.5121758,13.5910357 M7.41435758,16.4966201 C7.41435758,14.4930162 9.04599394,12.8697045 11.056903,12.8697045 C13.0712061,12.8697045 14.7028424,14.4930162 14.7028424,16.4966201 C14.7028424,18.5006461 13.0712061,20.1239578 11.056903,20.1239578 C9.04599394,20.1239578 7.41435758,18.5006461 7.41435758,16.4966201 M26.7538727,10.9467175 L26.7606606,10.9475617 C26.7487818,10.9319448 26.7352061,10.91675 26.7233273,10.9015552 C26.3508424,10.3486331 25.8735697,9.84551623 25.2991455,9.43103571 C23.7498121,8.08882792 21.9722364,7.10200974 21.9722364,7.10200974 C17.5083576,4.62567857 9.67217576,0.195970779 9.67217576,0.195970779 C9.67217576,0.195970779 6.71478182,3.75873052 18.1888424,9.56652273 C17.9593273,9.7716526 17.7510242,9.99619805 17.5741152,10.2431136 C17.3759939,10.5195747 16.9835697,10.5571396 16.7319939,10.3279513 C15.1147818,8.85363312 12.9142364,8.00061364 10.5151455,8.1504513 C6.32999394,8.41171753 2.92714545,11.8043799 2.67047879,15.9686006 C2.6696303,15.9829513 2.6696303,15.9968799 2.66878182,16.0112305 C2.51053939,15.9723994 2.34593333,15.9496071 2.17581212,15.9496071 C1.03714545,15.9496071 0.113993939,16.8680487 0.113993939,18.0013279 C0.113993939,19.1341851 1.03714545,20.0526266 2.17581212,20.0526266 C2.5915697,20.0526266 2.97805455,19.9289578 3.30175152,19.7183409 C4.49896364,22.5707435 7.2366,24.6203539 10.4820545,24.8385682 C9.02266061,28.0024643 11.0586,29.7650617 11.0586,29.7650617 C17.5601152,24.1054188 18.9168424,19.5993149 19.1476303,18.7695097 C19.1573879,18.7348994 19.1667212,18.700711 19.1760545,18.6661006 C19.1798727,18.6530162 19.1828424,18.6424643 19.1849636,18.6365552 C19.1849636,18.6365552 19.1836909,18.6365552 19.1836909,18.6365552 C19.3113879,18.1541201 19.3987818,17.655224 19.4382364,17.1423994 C19.4594485,16.8684708 19.7466606,16.7068149 19.9973879,16.8224643 C20.3329636,16.9769448 20.6897515,17.1044123 21.0643576,17.2014903 C23.9483576,17.953211 26.8900545,17.2660682 27.524297,14.8648669 C27.8539333,13.6108734 27.5573879,12.1648344 26.7538727,10.9467175" id="Fill-137"></path>
                    <path d="M20.6948848,19.0441136 C19.9876727,21.6204773 18.5070667,23.5801851 18.5070667,23.5801851 L26.3156727,21.8821656 C24.7328242,18.1991136 20.6948848,19.0441136 20.6948848,19.0441136" id="Fill-140"></path>
                </g>
            </g>
        </g>
    </g>
</svg>